<?xml version="1.0" encoding="iso-8859-1"?>
<!-- Generator: Adobe Illustrator 16.0.0, SVG Export Plug-In . SVG Version: 6.00 Build 0)  -->
<!DOCTYPE svg PUBLIC "-//W3C//DTD SVG 1.1//EN" "http://www.w3.org/Graphics/SVG/1.1/DTD/svg11.dtd">
<svg xmlns="http://www.w3.org/2000/svg" xmlns:xlink="http://www.w3.org/1999/xlink" version="1.1" id="Capa_1" x="0px" y="0px" width="12px" height="12px" viewBox="0 0 356.919 356.918" style="enable-background:new 0 0 356.919 356.918;" xml:space="preserve">
<g>
	<g id="Layer_8">
		<path d="M301.201,7.721V349.19c0,4.269-3.457,7.729-7.715,7.729h-63.705c-4.268,0-7.727-3.46-7.727-7.729V7.721    c0-4.263,3.459-7.721,7.727-7.721h63.705C297.744,0,301.201,3.458,301.201,7.721z M127.142,0H63.438    c-4.266,0-7.721,3.458-7.721,7.721V349.19c0,4.269,3.455,7.729,7.721,7.729h63.703c4.265,0,7.723-3.46,7.723-7.729V7.721    C134.864,3.458,131.407,0,127.142,0z" fill="#FFFFFF"/>
	</g>
</g>
<g>
</g>
<g>
</g>
<g>
</g>
<g>
</g>
<g>
</g>
<g>
</g>
<g>
</g>
<g>
</g>
<g>
</g>
<g>
</g>
<g>
</g>
<g>
</g>
<g>
</g>
<g>
</g>
<g>
</g>
</svg>
