<?xml version="1.0" encoding="iso-8859-1"?>
<!-- Generator: Adobe Illustrator 18.0.0, SVG Export Plug-In . SVG Version: 6.00 Build 0)  -->
<!DOCTYPE svg PUBLIC "-//W3C//DTD SVG 1.1//EN" "http://www.w3.org/Graphics/SVG/1.1/DTD/svg11.dtd">
<svg xmlns="http://www.w3.org/2000/svg" xmlns:xlink="http://www.w3.org/1999/xlink" version="1.1" id="Capa_1" x="0px" y="0px" viewBox="0 0 191.029 191.029" style="enable-background:new 0 0 191.029 191.029;" xml:space="preserve" width="40px" height="40px">
<path d="M44.33,88.474v15.377h38.417v82.745H0v-82.745h0.002V88.474c0-31.225,8.984-54.411,26.704-68.918  C38.964,9.521,54.48,4.433,72.824,4.433v44.326C62.866,48.759,44.33,48.759,44.33,88.474z M181.107,48.759V4.433  c-18.343,0-33.859,5.088-46.117,15.123c-17.72,14.507-26.705,37.694-26.705,68.918v15.377h0v82.745h82.744v-82.745h-38.417V88.474  C152.613,48.759,171.149,48.759,181.107,48.759z" fill="#3bc8e7"/>
<g>
</g>
<g>
</g>
<g>
</g>
<g>
</g>
<g>
</g>
<g>
</g>
<g>
</g>
<g>
</g>
<g>
</g>
<g>
</g>
<g>
</g>
<g>
</g>
<g>
</g>
<g>
</g>
<g>
</g>
</svg>
