<svg 
 xmlns="http://www.w3.org/2000/svg"
 xmlns:xlink="http://www.w3.org/1999/xlink"
 width="12px" height="16px">
<path fill-rule="evenodd"  fill="rgb(255, 255, 255)"
 d="M11.154,8.507 L6.512,15.772 C6.423,15.912 6.262,15.999 6.087,16.000 C6.086,16.000 6.085,16.000 6.083,16.000 C5.910,16.000 5.750,15.916 5.658,15.778 L0.896,8.583 C0.310,7.695 -0.000,6.673 -0.000,5.625 C-0.000,2.523 2.692,-0.000 6.000,-0.000 C9.308,-0.000 12.000,2.523 12.000,5.625 C12.000,6.641 11.707,7.638 11.154,8.507 ZM6.000,0.931 C3.243,0.931 0.993,3.040 0.993,5.625 C0.993,6.498 1.258,7.350 1.745,8.089 L6.076,14.631 L10.295,8.025 C10.756,7.302 11.003,6.472 11.003,5.625 C11.003,3.040 8.757,0.931 6.000,0.931 ZM6.000,8.437 C4.324,8.437 3.000,7.166 3.000,5.625 C3.000,4.074 4.346,2.812 6.000,2.812 C7.654,2.812 9.000,4.074 9.000,5.625 C9.000,7.149 7.697,8.437 6.000,8.437 ZM6.000,3.744 C4.897,3.744 3.993,4.591 3.993,5.625 C3.993,6.661 4.891,7.506 6.000,7.506 C7.126,7.506 8.003,6.646 8.003,5.625 C8.003,4.591 7.103,3.744 6.000,3.744 Z"/>
</svg>