<svg 
 xmlns="http://www.w3.org/2000/svg"
 xmlns:xlink="http://www.w3.org/1999/xlink"
 width="8px" height="8px">
<path fill-rule="evenodd"  fill="rgb(255, 255, 255)"
 d="M4.945,3.993 L7.802,1.135 C8.065,0.872 8.065,0.446 7.802,0.183 C7.539,-0.080 7.113,-0.080 6.850,0.183 L3.993,3.040 L1.135,0.183 C0.872,-0.080 0.446,-0.080 0.183,0.183 C-0.080,0.446 -0.080,0.872 0.183,1.135 L3.040,3.993 L0.183,6.850 C-0.080,7.113 -0.080,7.539 0.183,7.802 C0.446,8.065 0.872,8.065 1.135,7.802 L3.993,4.945 L6.850,7.802 C7.113,8.065 7.539,8.065 7.802,7.802 C8.065,7.539 8.065,7.113 7.802,6.850 L4.945,3.993 Z"/>
</svg>