<svg 
 xmlns="http://www.w3.org/2000/svg"
 xmlns:xlink="http://www.w3.org/1999/xlink"
 width="586px" height="50px">
<path fill-rule="evenodd"  fill="rgb(205, 205, 205)"
 d="M111.375,20.000 L92.625,20.000 C92.280,20.000 92.000,19.720 92.000,19.375 L92.000,5.625 C92.000,5.280 92.280,5.000 92.625,5.000 L94.500,5.000 L94.500,3.125 C94.500,2.780 94.780,2.500 95.125,2.500 L97.000,2.500 L97.000,0.625 C97.000,0.280 97.280,-0.000 97.625,-0.000 L106.375,-0.000 C106.720,-0.000 107.000,0.280 107.000,0.625 L107.000,2.500 L108.875,2.500 C109.220,2.500 109.500,2.780 109.500,3.125 L109.500,5.000 L111.375,5.000 C111.720,5.000 112.000,5.280 112.000,5.625 L112.000,19.375 C112.000,19.720 111.720,20.000 111.375,20.000 ZM105.750,1.250 L98.250,1.250 L98.250,2.500 L105.750,2.500 L105.750,1.250 ZM108.250,3.750 L95.750,3.750 L95.750,5.000 L108.250,5.000 L108.250,3.750 ZM110.750,6.250 L93.250,6.250 L93.250,18.750 L110.750,18.750 L110.750,6.250 ZM100.750,13.750 C101.211,13.750 101.632,13.846 102.000,14.002 L102.000,8.125 C102.000,8.104 102.010,8.086 102.012,8.066 C102.014,8.047 102.007,8.030 102.011,8.010 C102.015,7.987 102.029,7.971 102.035,7.950 C102.049,7.907 102.064,7.867 102.085,7.829 C102.102,7.796 102.122,7.767 102.145,7.739 C102.174,7.704 102.204,7.674 102.239,7.645 C102.265,7.624 102.292,7.605 102.324,7.589 C102.362,7.566 102.401,7.550 102.444,7.536 C102.481,7.525 102.517,7.519 102.556,7.514 C102.580,7.511 102.601,7.500 102.625,7.500 C102.646,7.500 102.664,7.510 102.684,7.511 C102.702,7.512 102.721,7.506 102.740,7.510 C103.781,7.705 105.750,8.591 105.750,10.546 C105.750,10.891 105.470,11.171 105.125,11.171 C104.780,11.171 104.500,10.891 104.500,10.546 C104.500,9.710 103.816,9.239 103.250,8.987 L103.250,15.625 C103.250,16.676 102.151,17.500 100.750,17.500 C99.349,17.500 98.250,16.676 98.250,15.625 C98.250,14.574 99.349,13.750 100.750,13.750 ZM100.750,16.250 C101.502,16.250 102.000,15.874 102.000,15.625 C102.000,15.376 101.502,15.000 100.750,15.000 C99.997,15.000 99.500,15.376 99.500,15.625 C99.500,15.874 99.997,16.250 100.750,16.250 Z"/>
<path fill-rule="evenodd"  fill="rgb(205, 205, 205)"
 d="M143.999,5.920 C143.999,5.929 143.999,5.939 143.998,5.948 C143.997,5.954 143.997,5.960 143.996,5.966 C143.995,5.974 143.994,5.982 143.992,5.990 C143.991,5.997 143.990,6.003 143.988,6.009 C143.987,6.017 143.985,6.024 143.983,6.031 C143.981,6.038 143.979,6.044 143.977,6.050 C143.975,6.058 143.972,6.065 143.970,6.072 C143.967,6.078 143.965,6.084 143.962,6.090 C143.959,6.097 143.956,6.104 143.952,6.111 C143.950,6.117 143.947,6.122 143.944,6.128 C143.940,6.135 143.935,6.143 143.931,6.150 C143.928,6.155 143.925,6.159 143.922,6.164 C143.915,6.175 143.907,6.186 143.898,6.197 L143.897,6.198 C143.897,6.198 143.897,6.198 143.897,6.198 L132.847,19.834 C132.846,19.835 132.845,19.836 132.844,19.837 C132.835,19.849 132.825,19.860 132.814,19.870 C132.813,19.871 132.811,19.873 132.810,19.874 C132.801,19.883 132.791,19.892 132.780,19.900 C132.777,19.902 132.774,19.905 132.771,19.908 C132.760,19.916 132.749,19.923 132.738,19.931 C132.737,19.931 132.736,19.932 132.734,19.933 C132.722,19.941 132.709,19.948 132.696,19.954 C132.693,19.956 132.689,19.957 132.686,19.959 C132.675,19.964 132.664,19.969 132.652,19.973 C132.649,19.974 132.647,19.975 132.644,19.976 C132.630,19.981 132.616,19.985 132.601,19.988 C132.598,19.989 132.596,19.989 132.593,19.990 C132.581,19.992 132.569,19.994 132.557,19.996 C132.553,19.996 132.549,19.997 132.545,19.997 C132.530,19.999 132.515,20.000 132.500,20.000 C132.485,20.000 132.470,19.999 132.455,19.997 C132.451,19.997 132.447,19.996 132.443,19.996 C132.431,19.994 132.419,19.992 132.407,19.990 C132.404,19.989 132.401,19.989 132.398,19.988 C132.384,19.985 132.370,19.981 132.356,19.976 C132.353,19.975 132.350,19.974 132.347,19.973 C132.336,19.969 132.325,19.964 132.314,19.959 C132.310,19.957 132.307,19.956 132.304,19.954 C132.290,19.948 132.277,19.941 132.265,19.933 C132.264,19.932 132.263,19.931 132.261,19.931 C132.250,19.923 132.239,19.916 132.229,19.908 C132.225,19.905 132.222,19.902 132.219,19.900 C132.209,19.892 132.199,19.883 132.189,19.874 C132.188,19.873 132.187,19.871 132.186,19.870 C132.175,19.860 132.165,19.849 132.155,19.837 C132.154,19.836 132.153,19.835 132.152,19.834 L121.103,6.198 C121.102,6.198 121.102,6.198 121.102,6.198 L121.102,6.197 C121.093,6.186 121.085,6.175 121.077,6.164 C121.074,6.159 121.072,6.155 121.069,6.150 C121.064,6.143 121.059,6.135 121.055,6.128 C121.052,6.122 121.050,6.117 121.047,6.111 C121.044,6.104 121.040,6.097 121.037,6.090 C121.035,6.084 121.032,6.078 121.030,6.072 C121.027,6.064 121.025,6.057 121.022,6.050 C121.020,6.044 121.019,6.038 121.017,6.031 C121.015,6.024 121.013,6.017 121.011,6.009 C121.010,6.003 121.009,5.997 121.007,5.990 C121.006,5.982 121.005,5.974 121.004,5.966 C121.003,5.960 121.002,5.954 121.002,5.948 C121.001,5.939 121.001,5.930 121.000,5.920 C121.000,5.916 121.000,5.913 121.000,5.909 C121.000,5.908 121.000,5.907 121.000,5.905 C121.000,5.893 121.001,5.881 121.002,5.869 C121.002,5.867 121.002,5.864 121.002,5.862 C121.004,5.848 121.006,5.834 121.009,5.820 C121.010,5.815 121.011,5.809 121.013,5.803 C121.014,5.795 121.016,5.787 121.019,5.780 C121.021,5.773 121.023,5.767 121.025,5.761 C121.027,5.754 121.030,5.747 121.032,5.740 C121.035,5.733 121.038,5.727 121.040,5.721 C121.043,5.714 121.047,5.708 121.050,5.701 C121.053,5.695 121.056,5.689 121.059,5.684 C121.063,5.677 121.067,5.671 121.071,5.664 C121.074,5.659 121.078,5.653 121.082,5.648 C121.086,5.642 121.090,5.636 121.095,5.630 C121.099,5.625 121.103,5.619 121.107,5.614 C121.109,5.612 121.111,5.610 121.112,5.608 L125.874,0.153 C125.875,0.152 125.877,0.151 125.878,0.150 C125.885,0.142 125.893,0.134 125.901,0.126 C125.904,0.123 125.907,0.120 125.910,0.117 C125.919,0.108 125.929,0.100 125.940,0.092 C125.941,0.091 125.943,0.089 125.945,0.088 C125.958,0.079 125.970,0.070 125.984,0.062 C125.984,0.062 125.984,0.062 125.984,0.062 C126.010,0.047 126.039,0.033 126.069,0.023 C126.069,0.023 126.069,0.023 126.069,0.023 C126.074,0.022 126.079,0.020 126.084,0.019 C126.094,0.016 126.104,0.013 126.115,0.011 C126.119,0.010 126.123,0.009 126.127,0.008 C126.138,0.006 126.150,0.004 126.161,0.003 C126.165,0.002 126.169,0.002 126.173,0.002 C126.184,0.001 126.196,0.000 126.208,0.000 C126.209,0.000 126.210,-0.000 126.211,-0.000 L138.789,-0.000 C138.790,-0.000 138.791,0.000 138.792,0.000 C138.804,0.000 138.816,0.001 138.828,0.002 C138.831,0.002 138.835,0.002 138.839,0.003 C138.850,0.004 138.862,0.006 138.874,0.009 C138.878,0.009 138.881,0.010 138.885,0.010 C138.896,0.013 138.906,0.016 138.917,0.019 C138.921,0.021 138.926,0.022 138.930,0.023 C138.931,0.023 138.931,0.023 138.931,0.023 C138.961,0.033 138.989,0.046 139.016,0.062 C139.016,0.062 139.016,0.062 139.016,0.062 C139.029,0.070 139.042,0.079 139.054,0.088 C139.056,0.089 139.058,0.091 139.060,0.092 C139.071,0.100 139.080,0.108 139.090,0.117 C139.093,0.120 139.096,0.123 139.099,0.126 C139.107,0.134 139.115,0.142 139.122,0.150 C139.123,0.151 139.125,0.152 139.126,0.153 L143.887,5.608 C143.889,5.610 143.891,5.612 143.892,5.614 C143.897,5.619 143.901,5.624 143.905,5.630 C143.909,5.636 143.914,5.642 143.918,5.648 C143.922,5.653 143.925,5.659 143.929,5.664 C143.933,5.671 143.937,5.677 143.941,5.684 C143.944,5.689 143.947,5.695 143.950,5.701 C143.953,5.708 143.956,5.714 143.960,5.721 C143.962,5.727 143.965,5.733 143.967,5.740 C143.970,5.747 143.973,5.754 143.975,5.761 C143.977,5.767 143.979,5.773 143.981,5.780 C143.983,5.787 143.985,5.795 143.987,5.803 C143.989,5.809 143.990,5.814 143.991,5.820 C143.994,5.834 143.996,5.848 143.997,5.862 C143.998,5.864 143.998,5.867 143.998,5.869 C143.999,5.881 144.000,5.893 144.000,5.905 C144.000,5.907 144.000,5.908 144.000,5.909 C144.000,5.913 143.999,5.916 143.999,5.920 ZM131.304,17.353 L127.684,6.364 L122.398,6.364 L131.304,17.353 ZM126.031,1.347 L122.445,5.454 L127.384,5.454 L126.031,1.347 ZM126.834,0.909 L128.179,4.991 L131.541,0.909 L126.834,0.909 ZM128.967,5.454 L130.703,5.454 C130.951,5.454 131.152,5.658 131.152,5.909 C131.152,6.160 130.951,6.364 130.703,6.364 L128.631,6.364 L132.500,18.108 L136.369,6.364 L134.254,6.364 C134.006,6.364 133.805,6.160 133.805,5.909 C133.805,5.658 134.006,5.454 134.254,5.454 L136.033,5.454 L132.500,1.164 L128.967,5.454 ZM133.459,0.909 L136.821,4.991 L138.166,0.909 L133.459,0.909 ZM138.968,1.347 L137.615,5.454 L142.554,5.454 L138.968,1.347 ZM137.316,6.364 L133.696,17.353 L142.601,6.364 L137.316,6.364 ZM132.500,6.364 C132.252,6.364 132.051,6.160 132.051,5.909 C132.051,5.658 132.252,5.454 132.500,5.454 C132.748,5.454 132.949,5.658 132.949,5.909 C132.949,6.160 132.748,6.364 132.500,6.364 Z"/>
<path fill-rule="evenodd"  fill="rgb(205, 205, 205)"
 d="M172.004,10.095 C172.004,7.400 170.964,4.864 169.076,2.959 C167.188,1.054 164.675,0.004 162.004,0.004 C159.333,0.004 156.820,1.054 154.932,2.959 C153.044,4.864 152.004,7.400 152.004,10.095 L152.004,14.873 C152.004,17.572 154.183,19.771 156.858,19.771 C157.179,19.771 157.436,19.512 157.436,19.188 L157.436,10.561 C157.436,10.238 157.179,9.978 156.858,9.978 C155.377,9.978 154.050,10.648 153.160,11.706 L153.160,10.095 C153.160,5.175 157.128,1.171 162.004,1.171 C166.880,1.171 170.848,5.175 170.848,10.095 C170.848,10.134 170.852,10.173 170.861,10.212 C170.852,10.250 170.848,10.289 170.848,10.328 L170.848,11.939 C169.958,10.881 168.631,10.212 167.150,10.212 C166.828,10.212 166.572,10.471 166.572,10.795 L166.572,19.421 C166.572,19.745 166.828,20.004 167.150,20.004 C169.825,20.004 172.004,17.806 172.004,15.106 L172.004,10.328 C172.004,10.289 172.000,10.250 171.991,10.212 C172.000,10.173 172.004,10.134 172.004,10.095 ZM156.276,11.188 L156.276,18.557 C154.512,18.276 153.155,16.730 153.155,14.873 C153.160,13.015 154.512,11.469 156.276,11.188 ZM167.732,18.790 L167.732,11.421 C169.495,11.702 170.852,13.248 170.852,15.106 C170.848,16.968 169.495,18.510 167.732,18.790 Z"/>
<path fill-rule="evenodd"  fill="rgb(205, 205, 205)"
 d="M198.847,17.579 C198.569,17.803 198.163,17.757 197.941,17.475 C197.719,17.193 197.765,16.783 198.044,16.558 C200.374,14.679 201.711,11.872 201.711,8.858 C201.711,5.844 200.374,3.038 198.044,1.158 C197.765,0.933 197.719,0.523 197.941,0.241 C198.163,-0.041 198.569,-0.087 198.847,0.138 C201.486,2.266 203.000,5.445 203.000,8.858 C203.000,12.272 201.486,15.450 198.847,17.579 ZM196.698,14.857 C196.420,15.081 196.014,15.035 195.792,14.752 C195.571,14.470 195.617,14.060 195.896,13.836 C197.407,12.619 198.273,10.805 198.273,8.858 C198.273,6.911 197.407,5.097 195.896,3.881 C195.617,3.656 195.571,3.246 195.792,2.964 C196.014,2.682 196.419,2.635 196.698,2.860 C198.518,4.325 199.562,6.511 199.562,8.858 C199.562,11.205 198.518,13.391 196.698,14.857 ZM192.644,12.063 L192.644,19.348 C192.644,19.708 192.356,20.000 192.000,20.000 C191.644,20.000 191.355,19.708 191.355,19.348 L191.355,12.063 C189.886,11.760 188.777,10.442 188.777,8.867 C188.777,7.068 190.223,5.605 192.000,5.605 C193.777,5.605 195.223,7.068 195.223,8.867 C195.223,10.442 194.114,11.760 192.644,12.063 ZM192.000,6.910 C190.934,6.910 190.066,7.788 190.066,8.867 C190.066,9.946 190.934,10.824 192.000,10.824 C193.066,10.824 193.933,9.946 193.933,8.867 C193.933,7.788 193.066,6.910 192.000,6.910 ZM188.207,14.752 C187.986,15.034 187.580,15.081 187.302,14.857 C185.481,13.391 184.437,11.205 184.437,8.858 C184.437,6.511 185.481,4.325 187.302,2.859 C187.580,2.635 187.986,2.682 188.207,2.964 C188.429,3.246 188.383,3.656 188.104,3.881 C186.593,5.097 185.726,6.911 185.726,8.858 C185.726,10.805 186.593,12.619 188.104,13.836 C188.383,14.060 188.429,14.470 188.207,14.752 ZM182.289,8.858 C182.289,11.872 183.626,14.679 185.956,16.559 C186.235,16.783 186.281,17.194 186.059,17.475 C185.837,17.757 185.431,17.803 185.153,17.579 C182.514,15.450 181.000,12.272 181.000,8.858 C181.000,5.445 182.514,2.266 185.153,0.138 C185.431,-0.087 185.837,-0.041 186.059,0.241 C186.280,0.523 186.235,0.933 185.956,1.158 C183.626,3.037 182.289,5.844 182.289,8.858 Z"/>
<path fill-rule="evenodd"  fill="rgb(205, 205, 205)"
 d="M229.656,20.000 L214.344,20.000 C213.051,20.000 212.000,18.949 212.000,17.656 L212.000,12.227 L213.562,12.227 L213.562,17.656 C213.562,18.087 213.913,18.437 214.344,18.437 L229.656,18.437 C230.087,18.437 230.437,18.087 230.437,17.656 L230.437,12.227 L232.000,12.227 L232.000,17.656 C232.000,18.949 230.949,20.000 229.656,20.000 ZM217.145,10.312 L218.250,9.208 L221.219,12.176 L221.219,-0.000 L222.781,-0.000 L222.781,12.176 L225.750,9.208 L226.855,10.312 L222.000,15.167 L217.145,10.312 Z"/>
<path fill-rule="evenodd"  fill="rgb(205, 205, 205)"
 d="M259.663,5.237 C259.612,4.892 259.320,4.651 258.976,4.651 L255.024,4.651 L255.024,3.032 C255.024,1.361 253.667,-0.000 252.000,-0.000 C250.333,-0.000 248.976,1.361 248.976,3.032 L248.976,4.651 L245.024,4.651 C244.680,4.651 244.388,4.892 244.337,5.237 L242.034,19.190 C242.000,19.397 242.051,19.604 242.189,19.759 C242.326,19.914 242.515,20.000 242.722,20.000 L261.278,20.000 C261.278,20.000 261.278,20.000 261.295,20.000 C261.691,20.000 262.000,19.690 262.000,19.294 C262.000,19.208 261.983,19.139 261.966,19.070 L259.663,5.237 ZM250.385,3.032 C250.385,2.136 251.106,1.413 252.000,1.413 C252.893,1.413 253.615,2.136 253.615,3.032 L253.615,4.651 L250.385,4.651 L250.385,3.032 ZM243.546,18.605 L245.625,6.064 L248.976,6.064 L248.976,10.009 C248.976,10.405 249.285,10.715 249.680,10.715 C250.075,10.715 250.385,10.405 250.385,10.009 L250.385,6.064 L253.615,6.064 L253.615,10.009 C253.615,10.405 253.924,10.715 254.320,10.715 C254.715,10.715 255.024,10.405 255.024,10.009 L255.024,6.064 L258.374,6.064 L260.454,18.605 L243.546,18.605 Z"/>
<path fill-rule="evenodd"  fill="rgb(205, 205, 205)"
 d="M290.614,3.670 C289.676,2.593 288.376,2.000 286.953,2.000 C284.951,2.000 283.684,3.211 282.973,4.227 C282.789,4.490 282.632,4.755 282.500,5.003 C282.368,4.755 282.211,4.490 282.027,4.227 C281.316,3.211 280.049,2.000 278.047,2.000 C276.623,2.000 275.323,2.593 274.386,3.670 C273.492,4.697 273.000,6.073 273.000,7.544 C273.000,9.145 273.617,10.634 274.942,12.231 C276.127,13.657 277.831,15.128 279.804,16.831 C280.539,17.465 281.300,18.122 282.109,18.839 L282.133,18.860 C282.238,18.954 282.369,19.000 282.500,19.000 C282.631,19.000 282.762,18.953 282.867,18.860 L282.891,18.839 C283.700,18.122 284.461,17.465 285.196,16.831 C287.169,15.128 288.873,13.657 290.057,12.231 C291.383,10.634 292.000,9.145 292.000,7.544 C292.000,6.073 291.508,4.697 290.614,3.670 ZM284.474,15.973 C283.840,16.520 283.188,17.083 282.500,17.688 C281.812,17.083 281.160,16.520 280.526,15.973 C276.664,12.640 274.113,10.438 274.113,7.544 C274.113,6.348 274.507,5.237 275.221,4.415 C275.944,3.585 276.948,3.127 278.047,3.127 C279.573,3.127 280.560,4.080 281.119,4.879 C281.620,5.595 281.881,6.317 281.971,6.595 C282.045,6.827 282.259,6.984 282.500,6.984 C282.741,6.984 282.955,6.827 283.029,6.595 C283.118,6.317 283.380,5.595 283.881,4.879 C284.440,4.080 285.427,3.127 286.953,3.127 C288.052,3.127 289.056,3.585 289.778,4.415 C290.493,5.237 290.887,6.348 290.887,7.544 C290.887,10.438 288.336,12.640 284.474,15.973 Z"/>
<path fill-rule="evenodd"  fill="rgb(205, 205, 205)"
 d="M313.974,10.734 L316.471,12.733 L315.638,13.918 L312.587,11.475 L312.587,3.331 L313.974,3.331 L313.974,10.734 ZM321.724,15.007 C319.131,19.782 313.402,21.408 308.928,18.640 L309.625,17.360 C310.406,17.843 311.257,18.180 312.144,18.359 C316.468,19.229 320.634,16.192 321.449,11.577 C322.264,6.961 319.419,2.514 315.095,1.644 C310.771,0.774 306.605,3.810 305.790,8.426 L307.935,6.139 L308.916,7.186 L304.958,11.411 L301.000,7.186 L301.981,6.139 L304.356,8.675 C304.977,3.714 308.939,0.008 313.627,-0.000 C315.276,0.000 316.895,0.466 318.321,1.348 C322.794,4.117 324.318,10.232 321.724,15.007 ZM306.891,14.554 L305.721,15.348 C305.452,14.898 305.218,14.426 305.021,13.935 L306.296,13.351 C306.464,13.769 306.663,14.171 306.891,14.554 ZM308.578,16.583 L307.699,17.730 C307.314,17.392 306.954,17.023 306.622,16.625 L307.663,15.642 C307.944,15.981 308.250,16.295 308.578,16.583 Z"/>
<path fill-rule="evenodd"  fill="rgb(205, 205, 205)"
 d="M351.343,2.572 C351.120,2.435 350.831,2.421 350.595,2.545 L345.487,5.172 C345.079,5.227 344.777,5.585 344.790,6.011 L345.040,14.071 C344.593,13.879 344.094,13.769 343.543,13.769 C343.044,13.769 342.545,13.851 342.059,14.016 C340.037,14.690 338.829,16.479 339.314,18.088 C339.669,19.243 340.838,20.000 342.309,20.000 C342.808,20.000 343.306,19.917 343.792,19.752 C345.618,19.147 346.773,17.648 346.642,16.190 C346.668,16.107 346.681,16.011 346.681,15.901 L346.537,11.087 L351.514,8.776 C351.816,8.638 352.000,8.322 351.987,7.978 L351.750,3.246 C351.724,2.957 351.580,2.710 351.343,2.572 ZM343.320,18.171 C342.978,18.281 342.637,18.336 342.309,18.336 C341.547,18.336 340.943,18.033 340.811,17.579 C340.628,16.974 341.284,15.997 342.532,15.585 C342.873,15.475 343.215,15.419 343.543,15.419 C344.305,15.419 344.909,15.722 345.040,16.176 C345.224,16.795 344.567,17.758 343.320,18.171 ZM346.471,9.298 L346.393,6.547 L350.227,4.580 L350.372,7.497 L346.471,9.298 ZM345.789,1.651 L332.788,1.651 C332.354,1.651 332.000,1.279 332.000,0.825 C332.000,0.371 332.354,-0.000 332.788,-0.000 L345.789,-0.000 C346.222,-0.000 346.576,0.371 346.576,0.825 C346.576,1.279 346.222,1.651 345.789,1.651 ZM341.980,5.640 C341.980,6.094 341.626,6.465 341.192,6.465 L332.788,6.465 C332.354,6.465 332.000,6.093 332.000,5.640 C332.000,5.186 332.354,4.814 332.788,4.814 L341.192,4.814 C341.626,4.814 341.980,5.186 341.980,5.640 ZM341.980,10.316 C341.980,10.770 341.626,11.142 341.192,11.142 L332.788,11.142 C332.354,11.142 332.000,10.770 332.000,10.316 C332.000,9.862 332.354,9.491 332.788,9.491 L341.192,9.491 C341.626,9.491 341.980,9.862 341.980,10.316 Z"/>
<path fill-rule="evenodd"  fill="rgb(205, 205, 205)"
 d="M378.200,14.143 L378.200,19.000 L375.800,19.000 L375.800,14.143 L371.000,14.143 L371.000,11.714 L375.800,11.714 L375.800,6.857 L378.200,6.857 L378.200,11.714 L383.000,11.714 L383.000,14.143 L378.200,14.143 ZM359.000,6.857 L373.400,6.857 L373.400,9.286 L359.000,9.286 L359.000,6.857 ZM359.000,2.000 L373.400,2.000 L373.400,4.429 L359.000,4.429 L359.000,2.000 ZM368.600,14.143 L359.000,14.143 L359.000,11.714 L368.600,11.714 L368.600,14.143 Z"/>
<path fill-rule="evenodd"  fill="rgb(255, 255, 255)"
 d="M407.608,16.608 C407.097,17.120 406.267,17.120 405.755,16.608 L402.547,13.400 C403.290,12.922 403.922,12.290 404.400,11.547 L407.608,14.755 C408.120,15.267 408.120,16.097 407.608,16.608 ZM399.254,13.497 C396.358,13.497 394.011,11.149 394.011,8.254 C394.011,5.358 396.358,3.011 399.254,3.011 C402.149,3.011 404.497,5.358 404.497,8.254 C404.497,11.149 402.149,13.497 399.254,13.497 ZM399.254,4.322 C397.085,4.322 395.322,6.085 395.322,8.254 C395.322,10.422 397.085,12.186 399.254,12.186 C401.422,12.186 403.186,10.422 403.186,8.254 C403.186,6.085 401.422,4.322 399.254,4.322 ZM397.069,8.254 L396.195,8.254 C396.195,6.568 397.568,5.195 399.254,5.195 L399.254,6.069 C398.049,6.069 397.069,7.049 397.069,8.254 Z"/>
<path fill-rule="evenodd"  fill="rgb(255, 255, 255)"
 d="M437.545,18.000 L436.727,15.750 L433.273,15.750 L432.454,18.000 L431.000,18.000 L434.273,9.000 L435.727,9.000 L439.000,18.000 L437.545,18.000 ZM435.000,10.999 L433.818,14.250 L436.182,14.250 L435.000,10.999 ZM429.807,10.901 L429.785,10.924 L431.633,12.806 L431.080,14.332 L428.818,12.000 L425.182,15.750 L424.153,14.689 L427.851,10.920 C426.942,9.877 426.214,8.722 425.684,7.500 L427.138,7.500 C427.582,8.392 428.142,9.236 428.818,10.012 C429.865,8.812 430.633,7.440 431.124,5.992 L423.000,5.992 L423.000,4.500 L428.091,4.500 L428.091,3.000 L429.545,3.000 L429.545,4.500 L434.636,4.500 L434.636,6.004 L432.505,6.004 C431.974,7.774 431.073,9.446 429.807,10.901 Z"/>
<path fill-rule="evenodd"  fill="rgb(205, 205, 205)"
 d="M52.312,17.286 L48.875,17.286 L48.875,19.321 C48.875,19.696 48.567,20.000 48.187,20.000 L35.812,20.000 C35.433,20.000 35.125,19.696 35.125,19.321 L35.125,17.286 L31.687,17.286 C31.308,17.286 31.000,16.982 31.000,16.607 L31.000,4.393 C31.000,4.018 31.308,3.714 31.687,3.714 L35.125,3.714 L35.125,1.679 C35.125,1.304 35.433,1.000 35.812,1.000 L48.187,1.000 C48.567,1.000 48.875,1.304 48.875,1.679 L48.875,3.714 L52.312,3.714 C52.692,3.714 53.000,4.018 53.000,4.393 L53.000,16.607 C53.000,16.982 52.692,17.286 52.312,17.286 ZM35.125,5.071 L32.375,5.071 L32.375,15.928 L35.125,15.928 L35.125,5.071 ZM47.500,2.357 L36.500,2.357 L36.500,18.643 L47.500,18.643 L47.500,2.357 ZM51.625,5.071 L48.875,5.071 L48.875,15.928 L51.625,15.928 L51.625,5.071 ZM40.625,11.857 C41.132,11.857 41.596,11.962 42.000,12.131 L42.000,5.750 C42.000,5.548 42.092,5.356 42.249,5.227 C42.405,5.098 42.613,5.044 42.815,5.084 C43.959,5.295 46.125,6.257 46.125,8.379 C46.125,8.753 45.817,9.057 45.437,9.057 C45.058,9.057 44.750,8.753 44.750,8.379 C44.750,7.472 43.998,6.955 43.375,6.681 L43.375,13.893 C43.375,15.034 42.168,15.928 40.625,15.928 C39.082,15.928 37.875,15.034 37.875,13.893 C37.875,12.751 39.082,11.857 40.625,11.857 ZM40.625,14.571 C41.464,14.571 42.000,14.170 42.000,13.893 C42.000,13.616 41.464,13.214 40.625,13.214 C39.786,13.214 39.250,13.616 39.250,13.893 C39.250,14.170 39.786,14.571 40.625,14.571 Z"/>
<path fill-rule="evenodd"  fill="rgb(205, 205, 205)"
 d="M71.200,16.130 L71.200,18.750 L69.250,18.750 C68.891,18.750 68.600,19.031 68.600,19.375 C68.600,19.719 68.891,20.000 69.250,20.000 L75.750,20.000 C76.108,20.000 76.400,19.719 76.400,19.375 C76.400,19.031 76.108,18.750 75.750,18.750 L73.800,18.750 L73.800,16.123 C76.508,15.608 79.000,13.501 79.000,10.000 L79.000,8.125 C79.000,7.780 78.708,7.500 78.350,7.500 C77.992,7.500 77.700,7.780 77.700,8.125 L77.700,10.000 C77.700,13.282 75.082,15.000 72.500,15.000 C69.995,15.000 67.300,13.435 67.300,10.000 L67.300,8.125 C67.300,7.780 67.009,7.500 66.650,7.500 C66.291,7.500 66.000,7.780 66.000,8.125 L66.000,10.000 C66.000,13.550 68.448,15.632 71.200,16.130 ZM72.500,13.750 C74.650,13.750 76.400,12.068 76.400,10.000 L76.400,3.750 C76.400,1.683 74.650,-0.000 72.500,-0.000 C70.350,-0.000 68.600,1.683 68.600,3.750 L68.600,10.000 C68.600,12.068 70.350,13.750 72.500,13.750 ZM69.900,3.750 C69.900,2.369 71.063,1.250 72.500,1.250 C73.937,1.250 75.100,2.369 75.100,3.750 L75.100,10.000 C75.100,11.382 73.937,12.500 72.500,12.500 C71.063,12.500 69.900,11.382 69.900,10.000 L69.900,3.750 Z"/>
<path fill-rule="evenodd"  fill="rgb(205, 205, 205)"
 d="M22.879,8.710 C22.763,8.866 22.581,8.948 22.397,8.948 C22.275,8.948 22.151,8.912 22.045,8.836 L11.504,1.299 L0.962,8.836 C0.696,9.026 0.323,8.969 0.128,8.710 C-0.067,8.450 -0.009,8.085 0.257,7.895 L11.151,0.106 C11.361,-0.045 11.646,-0.045 11.856,0.106 L22.750,7.895 C23.017,8.085 23.074,8.450 22.879,8.710 ZM3.144,8.968 C3.473,8.968 3.741,9.229 3.741,9.551 L3.741,18.833 L8.518,18.833 L8.518,13.766 C8.518,12.158 9.857,10.850 11.504,10.850 C13.150,10.850 14.490,12.158 14.490,13.766 L14.490,18.833 L19.267,18.833 L19.267,9.551 C19.267,9.229 19.534,8.968 19.864,8.968 C20.194,8.968 20.461,9.229 20.461,9.551 L20.461,19.416 C20.461,19.738 20.194,19.999 19.864,19.999 L13.893,19.999 C13.578,19.999 13.321,19.762 13.298,19.461 C13.296,19.448 13.295,19.433 13.295,19.416 L13.295,13.766 C13.295,12.801 12.492,12.017 11.504,12.017 C10.516,12.017 9.712,12.801 9.712,13.766 L9.712,19.416 C9.712,19.433 9.711,19.448 9.710,19.461 C9.686,19.762 9.429,19.999 9.115,19.999 L3.144,19.999 C2.814,19.999 2.546,19.738 2.546,19.416 L2.546,9.551 C2.546,9.229 2.814,8.968 3.144,8.968 Z"/>
<path fill-rule="evenodd"  fill="rgb(119, 119, 119)"
 d="M496.359,9.172 L491.847,9.172 L491.847,4.660 C491.847,4.455 491.568,4.009 491.010,4.009 C490.452,4.009 490.172,4.455 490.172,4.660 L490.172,9.172 L485.661,9.172 C485.455,9.172 485.010,9.451 485.010,10.009 C485.010,10.567 485.455,10.846 485.661,10.846 L490.173,10.846 L490.173,15.358 C490.173,15.563 490.452,16.009 491.010,16.009 C491.568,16.009 491.847,15.563 491.847,15.358 L491.847,10.846 L496.359,10.846 C496.564,10.846 497.010,10.567 497.010,10.009 C497.010,9.451 496.564,9.172 496.359,9.172 Z"/>
<path fill-rule="evenodd"  fill="rgb(119, 119, 119)"
 d="M525.093,16.499 L515.906,16.499 C515.131,16.499 514.500,15.868 514.500,15.093 L514.500,11.835 L515.437,11.835 L515.437,15.093 C515.437,15.352 515.648,15.562 515.906,15.562 L525.093,15.562 C525.352,15.562 525.562,15.352 525.562,15.093 L525.562,11.835 L526.500,11.835 L526.500,15.093 C526.500,15.868 525.869,16.499 525.093,16.499 ZM517.587,10.687 L518.250,10.024 L520.031,11.805 L520.031,4.499 L520.969,4.499 L520.969,11.805 L522.750,10.024 L523.413,10.687 L520.500,13.599 L517.587,10.687 Z"/>
<path fill-rule="evenodd"  fill="rgb(255, 255, 255)"
 d="M407.919,47.001 L395.079,47.001 C393.933,47.001 393.001,46.064 393.001,44.912 L393.001,36.090 C393.001,34.937 393.933,34.001 395.079,34.001 L407.922,34.001 C409.069,34.001 410.001,34.941 409.997,36.093 L409.997,44.912 C409.997,46.064 409.065,47.001 407.919,47.001 ZM409.048,44.912 L409.048,36.093 C409.048,35.468 408.541,34.959 407.919,34.959 L395.079,34.959 C394.457,34.959 393.950,35.468 393.950,36.093 L393.950,44.912 C393.950,45.537 394.457,46.046 395.079,46.046 L407.922,46.046 C408.545,46.046 409.051,45.537 409.051,44.912 L409.048,44.912 ZM407.912,45.050 C407.817,45.149 407.694,45.198 407.567,45.198 C407.451,45.198 407.332,45.156 407.240,45.067 L403.013,41.031 L401.828,42.098 C401.740,42.180 401.624,42.222 401.511,42.222 C401.399,42.222 401.286,42.183 401.195,42.102 L400.041,41.066 L395.790,45.064 C395.698,45.149 395.582,45.191 395.466,45.191 C395.339,45.191 395.213,45.138 395.118,45.039 C394.938,44.845 394.949,44.544 395.139,44.364 L399.327,40.423 L395.121,36.645 C394.924,36.468 394.907,36.168 395.083,35.970 C395.259,35.772 395.557,35.754 395.754,35.931 L400.305,40.023 C400.333,40.045 400.358,40.066 400.382,40.091 C400.382,40.094 400.386,40.098 400.389,40.101 L401.508,41.105 L407.240,35.934 C407.437,35.757 407.736,35.775 407.912,35.970 C408.088,36.168 408.070,36.468 407.877,36.645 L403.720,40.391 L407.894,44.375 C408.084,44.555 408.091,44.859 407.912,45.050 Z"/>
<path fill-rule="evenodd"  fill="rgb(255, 255, 255)"
 d="M436.154,40.507 L431.512,47.772 C431.423,47.912 431.262,47.999 431.087,48.000 C431.086,48.000 431.084,48.000 431.083,48.000 C430.910,48.000 430.750,47.916 430.658,47.778 L425.896,40.583 C425.310,39.695 425.000,38.673 425.000,37.625 C425.000,34.523 427.692,32.000 431.000,32.000 C434.308,32.000 437.000,34.523 437.000,37.625 C437.000,38.641 436.707,39.638 436.154,40.507 ZM431.000,32.931 C428.243,32.931 425.993,35.040 425.993,37.625 C425.993,38.498 426.258,39.350 426.745,40.089 L431.076,46.631 L435.295,40.025 C435.756,39.302 436.003,38.472 436.003,37.625 C436.003,35.040 433.757,32.931 431.000,32.931 ZM431.000,40.437 C429.324,40.437 428.000,39.166 428.000,37.625 C428.000,36.074 429.346,34.812 431.000,34.812 C432.654,34.812 434.000,36.074 434.000,37.625 C434.000,39.149 432.697,40.437 431.000,40.437 ZM431.000,35.744 C429.897,35.744 428.993,36.591 428.993,37.625 C428.993,38.661 429.891,39.506 431.000,39.506 C432.126,39.506 433.003,38.646 433.003,37.625 C433.003,36.591 432.103,35.744 431.000,35.744 Z"/>
<path fill-rule="evenodd"  fill="rgb(255, 255, 255)"
 d="M111.375,50.000 L92.625,50.000 C92.280,50.000 92.000,49.720 92.000,49.375 L92.000,35.625 C92.000,35.280 92.280,35.000 92.625,35.000 L94.500,35.000 L94.500,33.125 C94.500,32.780 94.780,32.500 95.125,32.500 L97.000,32.500 L97.000,30.625 C97.000,30.280 97.280,30.000 97.625,30.000 L106.375,30.000 C106.720,30.000 107.000,30.280 107.000,30.625 L107.000,32.500 L108.875,32.500 C109.220,32.500 109.500,32.780 109.500,33.125 L109.500,35.000 L111.375,35.000 C111.720,35.000 112.000,35.280 112.000,35.625 L112.000,49.375 C112.000,49.720 111.720,50.000 111.375,50.000 ZM105.750,31.250 L98.250,31.250 L98.250,32.500 L105.750,32.500 L105.750,31.250 ZM108.250,33.750 L95.750,33.750 L95.750,35.000 L108.250,35.000 L108.250,33.750 ZM110.750,36.250 L93.250,36.250 L93.250,48.750 L110.750,48.750 L110.750,36.250 ZM100.750,43.750 C101.211,43.750 101.632,43.846 102.000,44.002 L102.000,38.125 C102.000,38.104 102.010,38.086 102.012,38.066 C102.014,38.047 102.007,38.030 102.011,38.010 C102.015,37.987 102.029,37.971 102.035,37.950 C102.049,37.907 102.064,37.867 102.085,37.829 C102.102,37.796 102.122,37.767 102.145,37.739 C102.174,37.704 102.204,37.674 102.239,37.645 C102.265,37.624 102.292,37.605 102.324,37.589 C102.362,37.566 102.401,37.550 102.444,37.536 C102.481,37.525 102.517,37.519 102.556,37.514 C102.580,37.511 102.601,37.500 102.625,37.500 C102.646,37.500 102.664,37.510 102.684,37.511 C102.702,37.512 102.721,37.506 102.740,37.510 C103.781,37.705 105.750,38.591 105.750,40.546 C105.750,40.891 105.470,41.171 105.125,41.171 C104.780,41.171 104.500,40.891 104.500,40.546 C104.500,39.710 103.816,39.239 103.250,38.987 L103.250,45.625 C103.250,46.676 102.151,47.500 100.750,47.500 C99.349,47.500 98.250,46.676 98.250,45.625 C98.250,44.574 99.349,43.750 100.750,43.750 ZM100.750,46.250 C101.502,46.250 102.000,45.874 102.000,45.625 C102.000,45.376 101.502,45.000 100.750,45.000 C99.997,45.000 99.500,45.376 99.500,45.625 C99.500,45.874 99.997,46.250 100.750,46.250 Z"/>
<path fill-rule="evenodd"  fill="rgb(255, 255, 255)"
 d="M143.999,35.920 C143.999,35.929 143.999,35.939 143.998,35.948 C143.997,35.954 143.997,35.960 143.996,35.966 C143.995,35.974 143.994,35.982 143.992,35.990 C143.991,35.997 143.990,36.003 143.988,36.009 C143.987,36.017 143.985,36.024 143.983,36.031 C143.981,36.038 143.979,36.044 143.977,36.050 C143.975,36.058 143.972,36.065 143.970,36.072 C143.967,36.078 143.965,36.084 143.962,36.090 C143.959,36.097 143.956,36.104 143.952,36.111 C143.950,36.117 143.947,36.122 143.944,36.128 C143.940,36.135 143.935,36.143 143.931,36.150 C143.928,36.155 143.925,36.159 143.922,36.164 C143.915,36.175 143.907,36.186 143.898,36.197 L143.897,36.198 C143.897,36.198 143.897,36.198 143.897,36.198 L132.847,49.834 C132.846,49.835 132.845,49.836 132.844,49.837 C132.835,49.849 132.825,49.860 132.814,49.870 C132.813,49.871 132.811,49.873 132.810,49.874 C132.801,49.883 132.791,49.892 132.780,49.900 C132.777,49.902 132.774,49.905 132.771,49.908 C132.760,49.916 132.749,49.923 132.738,49.931 C132.737,49.931 132.736,49.932 132.734,49.933 C132.722,49.941 132.709,49.948 132.696,49.954 C132.693,49.956 132.689,49.957 132.686,49.959 C132.675,49.964 132.664,49.969 132.652,49.973 C132.649,49.974 132.647,49.975 132.644,49.976 C132.630,49.981 132.616,49.985 132.601,49.988 C132.598,49.989 132.596,49.989 132.593,49.990 C132.581,49.992 132.569,49.994 132.557,49.996 C132.553,49.996 132.549,49.997 132.545,49.997 C132.530,49.999 132.515,50.000 132.500,50.000 C132.485,50.000 132.470,49.999 132.455,49.997 C132.451,49.997 132.447,49.996 132.443,49.996 C132.431,49.994 132.419,49.992 132.407,49.990 C132.404,49.989 132.401,49.989 132.398,49.988 C132.384,49.985 132.370,49.981 132.356,49.976 C132.353,49.975 132.350,49.974 132.347,49.973 C132.336,49.969 132.325,49.964 132.314,49.959 C132.310,49.957 132.307,49.956 132.304,49.954 C132.290,49.948 132.277,49.941 132.265,49.933 C132.264,49.932 132.263,49.931 132.261,49.931 C132.250,49.923 132.239,49.916 132.229,49.908 C132.225,49.905 132.222,49.902 132.219,49.900 C132.209,49.892 132.199,49.883 132.189,49.874 C132.188,49.873 132.187,49.871 132.186,49.870 C132.175,49.860 132.165,49.849 132.155,49.837 C132.154,49.836 132.153,49.835 132.152,49.834 L121.103,36.198 C121.102,36.198 121.102,36.198 121.102,36.198 L121.102,36.197 C121.093,36.186 121.085,36.175 121.077,36.164 C121.074,36.159 121.072,36.155 121.069,36.150 C121.064,36.143 121.059,36.135 121.055,36.128 C121.052,36.122 121.050,36.117 121.047,36.111 C121.044,36.104 121.040,36.097 121.037,36.090 C121.035,36.084 121.032,36.078 121.030,36.072 C121.027,36.064 121.025,36.057 121.022,36.050 C121.020,36.044 121.019,36.038 121.017,36.031 C121.015,36.024 121.013,36.017 121.011,36.009 C121.010,36.003 121.009,35.997 121.007,35.990 C121.006,35.982 121.005,35.974 121.004,35.966 C121.003,35.960 121.002,35.954 121.002,35.948 C121.001,35.939 121.001,35.930 121.000,35.920 C121.000,35.916 121.000,35.913 121.000,35.909 C121.000,35.908 121.000,35.907 121.000,35.905 C121.000,35.893 121.001,35.881 121.002,35.869 C121.002,35.867 121.002,35.864 121.002,35.862 C121.004,35.848 121.006,35.834 121.009,35.820 C121.010,35.815 121.011,35.809 121.013,35.803 C121.014,35.795 121.016,35.787 121.019,35.780 C121.021,35.773 121.023,35.767 121.025,35.761 C121.027,35.754 121.030,35.747 121.032,35.740 C121.035,35.733 121.038,35.727 121.040,35.721 C121.043,35.714 121.047,35.708 121.050,35.701 C121.053,35.695 121.056,35.689 121.059,35.684 C121.063,35.677 121.067,35.671 121.071,35.664 C121.074,35.659 121.078,35.653 121.082,35.648 C121.086,35.642 121.090,35.636 121.095,35.630 C121.099,35.625 121.103,35.619 121.107,35.614 C121.109,35.612 121.111,35.610 121.112,35.608 L125.874,30.153 C125.875,30.152 125.877,30.151 125.878,30.150 C125.885,30.142 125.893,30.134 125.901,30.126 C125.904,30.123 125.907,30.120 125.910,30.117 C125.919,30.108 125.929,30.100 125.940,30.092 C125.941,30.091 125.943,30.089 125.945,30.088 C125.958,30.079 125.970,30.070 125.984,30.062 C125.984,30.062 125.984,30.062 125.984,30.062 C126.010,30.047 126.039,30.033 126.069,30.023 C126.069,30.023 126.069,30.023 126.069,30.023 C126.074,30.022 126.079,30.020 126.084,30.019 C126.094,30.016 126.104,30.013 126.115,30.011 C126.119,30.010 126.123,30.009 126.127,30.008 C126.138,30.006 126.150,30.004 126.161,30.003 C126.165,30.002 126.169,30.002 126.173,30.002 C126.184,30.001 126.196,30.000 126.208,30.000 C126.209,30.000 126.210,30.000 126.211,30.000 L138.789,30.000 C138.790,30.000 138.791,30.000 138.792,30.000 C138.804,30.000 138.816,30.001 138.828,30.002 C138.831,30.002 138.835,30.002 138.839,30.003 C138.850,30.004 138.862,30.006 138.874,30.009 C138.878,30.009 138.881,30.010 138.885,30.010 C138.896,30.013 138.906,30.016 138.917,30.019 C138.921,30.021 138.926,30.022 138.930,30.023 C138.931,30.023 138.931,30.023 138.931,30.023 C138.961,30.033 138.989,30.046 139.016,30.062 C139.016,30.062 139.016,30.062 139.016,30.062 C139.029,30.070 139.042,30.079 139.054,30.088 C139.056,30.089 139.058,30.091 139.060,30.092 C139.071,30.100 139.080,30.108 139.090,30.117 C139.093,30.120 139.096,30.123 139.099,30.126 C139.107,30.134 139.115,30.142 139.122,30.150 C139.123,30.151 139.125,30.152 139.126,30.153 L143.887,35.608 C143.889,35.610 143.891,35.612 143.892,35.614 C143.897,35.619 143.901,35.624 143.905,35.630 C143.909,35.636 143.914,35.642 143.918,35.648 C143.922,35.653 143.925,35.659 143.929,35.664 C143.933,35.671 143.937,35.677 143.941,35.684 C143.944,35.689 143.947,35.695 143.950,35.701 C143.953,35.708 143.956,35.714 143.960,35.721 C143.962,35.727 143.965,35.733 143.967,35.740 C143.970,35.747 143.973,35.754 143.975,35.761 C143.977,35.767 143.979,35.773 143.981,35.780 C143.983,35.787 143.985,35.795 143.987,35.803 C143.989,35.809 143.990,35.814 143.991,35.820 C143.994,35.834 143.996,35.848 143.997,35.862 C143.998,35.864 143.998,35.867 143.998,35.869 C143.999,35.881 144.000,35.893 144.000,35.905 C144.000,35.907 144.000,35.908 144.000,35.909 C144.000,35.913 143.999,35.916 143.999,35.920 ZM131.304,47.353 L127.684,36.364 L122.398,36.364 L131.304,47.353 ZM126.031,31.347 L122.445,35.454 L127.384,35.454 L126.031,31.347 ZM126.834,30.909 L128.179,34.991 L131.541,30.909 L126.834,30.909 ZM128.967,35.454 L130.703,35.454 C130.951,35.454 131.152,35.658 131.152,35.909 C131.152,36.160 130.951,36.364 130.703,36.364 L128.631,36.364 L132.500,48.108 L136.369,36.364 L134.254,36.364 C134.006,36.364 133.805,36.160 133.805,35.909 C133.805,35.658 134.006,35.454 134.254,35.454 L136.033,35.454 L132.500,31.164 L128.967,35.454 ZM133.459,30.909 L136.821,34.991 L138.166,30.909 L133.459,30.909 ZM138.968,31.347 L137.615,35.454 L142.554,35.454 L138.968,31.347 ZM137.316,36.364 L133.696,47.353 L142.601,36.364 L137.316,36.364 ZM132.500,36.364 C132.252,36.364 132.051,36.160 132.051,35.909 C132.051,35.658 132.252,35.454 132.500,35.454 C132.748,35.454 132.949,35.658 132.949,35.909 C132.949,36.160 132.748,36.364 132.500,36.364 Z"/>
<path fill-rule="evenodd"  fill="rgb(255, 255, 255)"
 d="M172.004,40.095 C172.004,37.400 170.964,34.864 169.076,32.959 C167.188,31.054 164.675,30.004 162.004,30.004 C159.333,30.004 156.820,31.054 154.932,32.959 C153.044,34.864 152.004,37.400 152.004,40.095 L152.004,44.873 C152.004,47.572 154.183,49.771 156.858,49.771 C157.179,49.771 157.436,49.512 157.436,49.188 L157.436,40.561 C157.436,40.238 157.179,39.978 156.858,39.978 C155.377,39.978 154.050,40.648 153.160,41.706 L153.160,40.095 C153.160,35.175 157.128,31.171 162.004,31.171 C166.880,31.171 170.848,35.175 170.848,40.095 C170.848,40.134 170.852,40.173 170.861,40.212 C170.852,40.250 170.848,40.289 170.848,40.328 L170.848,41.939 C169.958,40.881 168.631,40.212 167.150,40.212 C166.828,40.212 166.572,40.471 166.572,40.795 L166.572,49.421 C166.572,49.745 166.828,50.004 167.150,50.004 C169.825,50.004 172.004,47.806 172.004,45.106 L172.004,40.328 C172.004,40.289 172.000,40.250 171.991,40.212 C172.000,40.173 172.004,40.134 172.004,40.095 ZM156.276,41.188 L156.276,48.557 C154.512,48.276 153.155,46.730 153.155,44.873 C153.160,43.015 154.512,41.469 156.276,41.188 ZM167.732,48.790 L167.732,41.421 C169.495,41.702 170.852,43.248 170.852,45.106 C170.848,46.968 169.495,48.510 167.732,48.790 Z"/>
<path fill-rule="evenodd"  fill="rgb(255, 255, 255)"
 d="M198.847,47.579 C198.569,47.803 198.163,47.757 197.941,47.475 C197.719,47.193 197.765,46.783 198.044,46.558 C200.374,44.679 201.711,41.872 201.711,38.858 C201.711,35.844 200.374,33.038 198.044,31.158 C197.765,30.933 197.719,30.523 197.941,30.241 C198.163,29.959 198.569,29.913 198.847,30.138 C201.486,32.266 203.000,35.445 203.000,38.858 C203.000,42.272 201.486,45.450 198.847,47.579 ZM196.698,44.857 C196.420,45.081 196.014,45.035 195.792,44.752 C195.571,44.470 195.617,44.060 195.896,43.836 C197.407,42.619 198.273,40.805 198.273,38.858 C198.273,36.911 197.407,35.097 195.896,33.881 C195.617,33.656 195.571,33.246 195.792,32.964 C196.014,32.682 196.419,32.635 196.698,32.860 C198.518,34.325 199.562,36.511 199.562,38.858 C199.562,41.205 198.518,43.391 196.698,44.857 ZM192.644,42.063 L192.644,49.348 C192.644,49.708 192.356,50.000 192.000,50.000 C191.644,50.000 191.355,49.708 191.355,49.348 L191.355,42.063 C189.886,41.760 188.777,40.442 188.777,38.867 C188.777,37.068 190.223,35.605 192.000,35.605 C193.777,35.605 195.223,37.068 195.223,38.867 C195.223,40.442 194.114,41.760 192.644,42.063 ZM192.000,36.910 C190.934,36.910 190.066,37.788 190.066,38.867 C190.066,39.946 190.934,40.824 192.000,40.824 C193.066,40.824 193.933,39.946 193.933,38.867 C193.933,37.788 193.066,36.910 192.000,36.910 ZM188.207,44.752 C187.986,45.034 187.580,45.081 187.302,44.857 C185.481,43.391 184.437,41.205 184.437,38.858 C184.437,36.511 185.481,34.325 187.302,32.859 C187.580,32.635 187.986,32.682 188.207,32.964 C188.429,33.246 188.383,33.656 188.104,33.881 C186.593,35.097 185.726,36.911 185.726,38.858 C185.726,40.805 186.593,42.619 188.104,43.836 C188.383,44.060 188.429,44.470 188.207,44.752 ZM182.289,38.858 C182.289,41.872 183.626,44.679 185.956,46.559 C186.235,46.783 186.281,47.194 186.059,47.475 C185.837,47.757 185.431,47.803 185.153,47.579 C182.514,45.450 181.000,42.272 181.000,38.858 C181.000,35.445 182.514,32.266 185.153,30.138 C185.431,29.913 185.837,29.959 186.059,30.241 C186.280,30.523 186.235,30.933 185.956,31.158 C183.626,33.037 182.289,35.844 182.289,38.858 Z"/>
<path fill-rule="evenodd"  fill="rgb(255, 255, 255)"
 d="M229.656,50.000 L214.344,50.000 C213.051,50.000 212.000,48.949 212.000,47.656 L212.000,42.227 L213.562,42.227 L213.562,47.656 C213.562,48.087 213.913,48.437 214.344,48.437 L229.656,48.437 C230.087,48.437 230.437,48.087 230.437,47.656 L230.437,42.227 L232.000,42.227 L232.000,47.656 C232.000,48.949 230.949,50.000 229.656,50.000 ZM217.145,40.312 L218.250,39.208 L221.219,42.176 L221.219,30.000 L222.781,30.000 L222.781,42.176 L225.750,39.208 L226.855,40.312 L222.000,45.167 L217.145,40.312 Z"/>
<path fill-rule="evenodd"  fill="rgb(255, 255, 255)"
 d="M259.663,35.237 C259.612,34.892 259.320,34.651 258.976,34.651 L255.024,34.651 L255.024,33.032 C255.024,31.361 253.667,30.000 252.000,30.000 C250.333,30.000 248.976,31.361 248.976,33.032 L248.976,34.651 L245.024,34.651 C244.680,34.651 244.388,34.892 244.337,35.237 L242.034,49.190 C242.000,49.397 242.051,49.604 242.189,49.759 C242.326,49.914 242.515,50.000 242.722,50.000 L261.278,50.000 C261.278,50.000 261.278,50.000 261.295,50.000 C261.691,50.000 262.000,49.690 262.000,49.294 C262.000,49.208 261.983,49.139 261.966,49.070 L259.663,35.237 ZM250.385,33.032 C250.385,32.136 251.106,31.413 252.000,31.413 C252.893,31.413 253.615,32.136 253.615,33.032 L253.615,34.651 L250.385,34.651 L250.385,33.032 ZM243.546,48.605 L245.625,36.064 L248.976,36.064 L248.976,40.009 C248.976,40.405 249.285,40.715 249.680,40.715 C250.075,40.715 250.385,40.405 250.385,40.009 L250.385,36.064 L253.615,36.064 L253.615,40.009 C253.615,40.405 253.924,40.715 254.320,40.715 C254.715,40.715 255.024,40.405 255.024,40.009 L255.024,36.064 L258.374,36.064 L260.454,48.605 L243.546,48.605 Z"/>
<path fill-rule="evenodd"  fill="rgb(255, 255, 255)"
 d="M290.614,33.670 C289.676,32.593 288.376,32.000 286.953,32.000 C284.951,32.000 283.684,33.211 282.973,34.227 C282.789,34.490 282.632,34.755 282.500,35.003 C282.368,34.755 282.211,34.490 282.027,34.227 C281.316,33.211 280.049,32.000 278.047,32.000 C276.623,32.000 275.323,32.593 274.386,33.670 C273.492,34.697 273.000,36.073 273.000,37.544 C273.000,39.145 273.617,40.634 274.942,42.231 C276.127,43.657 277.831,45.128 279.804,46.831 C280.539,47.465 281.300,48.122 282.109,48.839 L282.133,48.860 C282.238,48.954 282.369,49.000 282.500,49.000 C282.631,49.000 282.762,48.953 282.867,48.860 L282.891,48.839 C283.700,48.122 284.461,47.465 285.196,46.831 C287.169,45.128 288.873,43.657 290.057,42.231 C291.383,40.634 292.000,39.145 292.000,37.544 C292.000,36.073 291.508,34.697 290.614,33.670 ZM284.474,45.973 C283.840,46.520 283.188,47.083 282.500,47.688 C281.812,47.083 281.160,46.520 280.526,45.973 C276.664,42.640 274.113,40.438 274.113,37.544 C274.113,36.348 274.507,35.237 275.221,34.415 C275.944,33.585 276.948,33.127 278.047,33.127 C279.573,33.127 280.560,34.080 281.119,34.879 C281.620,35.595 281.881,36.317 281.971,36.595 C282.045,36.827 282.259,36.984 282.500,36.984 C282.741,36.984 282.955,36.827 283.029,36.595 C283.118,36.317 283.380,35.595 283.881,34.879 C284.440,34.080 285.427,33.127 286.953,33.127 C288.052,33.127 289.056,33.585 289.778,34.415 C290.493,35.237 290.887,36.348 290.887,37.544 C290.887,40.438 288.336,42.640 284.474,45.973 Z"/>
<path fill-rule="evenodd"  fill="rgb(255, 255, 255)"
 d="M313.974,40.734 L316.471,42.733 L315.638,43.918 L312.587,41.475 L312.587,33.331 L313.974,33.331 L313.974,40.734 ZM321.724,45.007 C319.131,49.782 313.402,51.408 308.928,48.640 L309.625,47.360 C310.406,47.843 311.257,48.180 312.144,48.359 C316.468,49.229 320.634,46.192 321.449,41.577 C322.264,36.961 319.419,32.514 315.095,31.644 C310.771,30.774 306.605,33.810 305.790,38.426 L307.935,36.139 L308.916,37.186 L304.958,41.411 L301.000,37.186 L301.981,36.139 L304.356,38.675 C304.977,33.714 308.939,30.008 313.627,30.000 C315.276,30.000 316.895,30.466 318.321,31.348 C322.794,34.117 324.318,40.232 321.724,45.007 ZM306.891,44.554 L305.721,45.348 C305.452,44.898 305.218,44.426 305.021,43.935 L306.296,43.351 C306.464,43.769 306.663,44.171 306.891,44.554 ZM308.578,46.583 L307.699,47.730 C307.314,47.392 306.954,47.023 306.622,46.625 L307.663,45.642 C307.944,45.981 308.250,46.295 308.578,46.583 Z"/>
<path fill-rule="evenodd"  fill="rgb(255, 255, 255)"
 d="M351.343,32.572 C351.120,32.435 350.831,32.421 350.595,32.545 L345.487,35.172 C345.079,35.227 344.777,35.585 344.790,36.011 L345.040,44.071 C344.593,43.879 344.094,43.769 343.543,43.769 C343.044,43.769 342.545,43.851 342.059,44.016 C340.037,44.690 338.829,46.479 339.314,48.088 C339.669,49.243 340.838,50.000 342.309,50.000 C342.808,50.000 343.306,49.917 343.792,49.752 C345.618,49.147 346.773,47.648 346.642,46.190 C346.668,46.107 346.681,46.011 346.681,45.901 L346.537,41.087 L351.514,38.776 C351.816,38.638 352.000,38.322 351.987,37.978 L351.750,33.246 C351.724,32.957 351.580,32.710 351.343,32.572 ZM343.320,48.171 C342.978,48.281 342.637,48.336 342.309,48.336 C341.547,48.336 340.943,48.033 340.811,47.579 C340.628,46.974 341.284,45.997 342.532,45.585 C342.873,45.475 343.215,45.419 343.543,45.419 C344.305,45.419 344.909,45.722 345.040,46.176 C345.224,46.795 344.567,47.758 343.320,48.171 ZM346.471,39.298 L346.393,36.547 L350.227,34.580 L350.372,37.497 L346.471,39.298 ZM345.789,31.651 L332.788,31.651 C332.354,31.651 332.000,31.279 332.000,30.825 C332.000,30.371 332.354,30.000 332.788,30.000 L345.789,30.000 C346.222,30.000 346.576,30.371 346.576,30.825 C346.576,31.279 346.222,31.651 345.789,31.651 ZM341.980,35.640 C341.980,36.094 341.626,36.465 341.192,36.465 L332.788,36.465 C332.354,36.465 332.000,36.093 332.000,35.640 C332.000,35.186 332.354,34.814 332.788,34.814 L341.192,34.814 C341.626,34.814 341.980,35.186 341.980,35.640 ZM341.980,40.316 C341.980,40.770 341.626,41.142 341.192,41.142 L332.788,41.142 C332.354,41.142 332.000,40.770 332.000,40.316 C332.000,39.862 332.354,39.491 332.788,39.491 L341.192,39.491 C341.626,39.491 341.980,39.862 341.980,40.316 Z"/>
<path fill-rule="evenodd"  fill="rgb(255, 255, 255)"
 d="M378.200,44.143 L378.200,49.000 L375.800,49.000 L375.800,44.143 L371.000,44.143 L371.000,41.714 L375.800,41.714 L375.800,36.857 L378.200,36.857 L378.200,41.714 L383.000,41.714 L383.000,44.143 L378.200,44.143 ZM359.000,36.857 L373.400,36.857 L373.400,39.286 L359.000,39.286 L359.000,36.857 ZM359.000,32.000 L373.400,32.000 L373.400,34.429 L359.000,34.429 L359.000,32.000 ZM368.600,44.143 L359.000,44.143 L359.000,41.714 L368.600,41.714 L368.600,44.143 Z"/>
<path fill-rule="evenodd"  fill="rgb(255, 255, 255)"
 d="M52.312,47.286 L48.875,47.286 L48.875,49.321 C48.875,49.696 48.567,50.000 48.187,50.000 L35.812,50.000 C35.433,50.000 35.125,49.696 35.125,49.321 L35.125,47.286 L31.687,47.286 C31.308,47.286 31.000,46.982 31.000,46.607 L31.000,34.393 C31.000,34.018 31.308,33.714 31.687,33.714 L35.125,33.714 L35.125,31.679 C35.125,31.304 35.433,31.000 35.812,31.000 L48.187,31.000 C48.567,31.000 48.875,31.304 48.875,31.679 L48.875,33.714 L52.312,33.714 C52.692,33.714 53.000,34.018 53.000,34.393 L53.000,46.607 C53.000,46.982 52.692,47.286 52.312,47.286 ZM35.125,35.071 L32.375,35.071 L32.375,45.928 L35.125,45.928 L35.125,35.071 ZM47.500,32.357 L36.500,32.357 L36.500,48.643 L47.500,48.643 L47.500,32.357 ZM51.625,35.071 L48.875,35.071 L48.875,45.928 L51.625,45.928 L51.625,35.071 ZM40.625,41.857 C41.132,41.857 41.596,41.962 42.000,42.131 L42.000,35.750 C42.000,35.548 42.092,35.356 42.249,35.227 C42.405,35.098 42.613,35.044 42.815,35.084 C43.959,35.295 46.125,36.257 46.125,38.379 C46.125,38.753 45.817,39.057 45.437,39.057 C45.058,39.057 44.750,38.753 44.750,38.379 C44.750,37.472 43.998,36.955 43.375,36.681 L43.375,43.893 C43.375,45.034 42.168,45.928 40.625,45.928 C39.082,45.928 37.875,45.034 37.875,43.893 C37.875,42.751 39.082,41.857 40.625,41.857 ZM40.625,44.571 C41.464,44.571 42.000,44.170 42.000,43.893 C42.000,43.616 41.464,43.214 40.625,43.214 C39.786,43.214 39.250,43.616 39.250,43.893 C39.250,44.170 39.786,44.571 40.625,44.571 Z"/>
<path fill-rule="evenodd"  fill="rgb(255, 255, 255)"
 d="M71.200,46.130 L71.200,48.750 L69.250,48.750 C68.891,48.750 68.600,49.031 68.600,49.375 C68.600,49.719 68.891,50.000 69.250,50.000 L75.750,50.000 C76.108,50.000 76.400,49.719 76.400,49.375 C76.400,49.031 76.108,48.750 75.750,48.750 L73.800,48.750 L73.800,46.123 C76.508,45.608 79.000,43.501 79.000,40.000 L79.000,38.125 C79.000,37.780 78.708,37.500 78.350,37.500 C77.992,37.500 77.700,37.780 77.700,38.125 L77.700,40.000 C77.700,43.282 75.082,45.000 72.500,45.000 C69.995,45.000 67.300,43.435 67.300,40.000 L67.300,38.125 C67.300,37.780 67.009,37.500 66.650,37.500 C66.291,37.500 66.000,37.780 66.000,38.125 L66.000,40.000 C66.000,43.550 68.448,45.632 71.200,46.130 ZM72.500,43.750 C74.650,43.750 76.400,42.068 76.400,40.000 L76.400,33.750 C76.400,31.683 74.650,30.000 72.500,30.000 C70.350,30.000 68.600,31.683 68.600,33.750 L68.600,40.000 C68.600,42.068 70.350,43.750 72.500,43.750 ZM69.900,33.750 C69.900,32.369 71.063,31.250 72.500,31.250 C73.937,31.250 75.100,32.369 75.100,33.750 L75.100,40.000 C75.100,41.382 73.937,42.500 72.500,42.500 C71.063,42.500 69.900,41.382 69.900,40.000 L69.900,33.750 Z"/>
<path fill-rule="evenodd"  fill="rgb(255, 255, 255)"
 d="M22.879,38.710 C22.763,38.866 22.581,38.948 22.397,38.948 C22.275,38.948 22.151,38.912 22.045,38.836 L11.504,31.299 L0.962,38.836 C0.696,39.026 0.323,38.969 0.128,38.710 C-0.067,38.450 -0.009,38.085 0.257,37.895 L11.151,30.106 C11.361,29.955 11.646,29.955 11.856,30.106 L22.750,37.895 C23.017,38.085 23.074,38.450 22.879,38.710 ZM3.144,38.968 C3.473,38.968 3.741,39.229 3.741,39.551 L3.741,48.833 L8.518,48.833 L8.518,43.766 C8.518,42.158 9.857,40.850 11.504,40.850 C13.150,40.850 14.490,42.158 14.490,43.766 L14.490,48.833 L19.267,48.833 L19.267,39.551 C19.267,39.229 19.534,38.968 19.864,38.968 C20.194,38.968 20.461,39.229 20.461,39.551 L20.461,49.416 C20.461,49.738 20.194,49.999 19.864,49.999 L13.893,49.999 C13.578,49.999 13.321,49.762 13.298,49.461 C13.296,49.448 13.295,49.433 13.295,49.416 L13.295,43.766 C13.295,42.801 12.492,42.017 11.504,42.017 C10.516,42.017 9.712,42.801 9.712,43.766 L9.712,49.416 C9.712,49.433 9.711,49.448 9.710,49.461 C9.686,49.762 9.429,49.999 9.115,49.999 L3.144,49.999 C2.814,49.999 2.546,49.738 2.546,49.416 L2.546,39.551 C2.546,39.229 2.814,38.968 3.144,38.968 Z"/>
<path fill-rule="evenodd"  fill="rgb(119, 119, 119)"
 d="M467.308,5.678 C466.637,4.918 465.706,4.499 464.687,4.499 C463.254,4.499 462.347,5.354 461.838,6.071 C461.706,6.257 461.594,6.444 461.500,6.619 C461.405,6.444 461.293,6.257 461.161,6.071 C460.653,5.354 459.745,4.499 458.312,4.499 C457.293,4.499 456.363,4.918 455.692,5.678 C455.052,6.403 454.700,7.374 454.700,8.413 C454.700,9.543 455.142,10.594 456.090,11.721 C456.938,12.728 458.158,13.766 459.570,14.968 C460.096,15.416 460.641,15.879 461.220,16.385 L461.237,16.401 C461.312,16.466 461.406,16.499 461.500,16.499 C461.593,16.499 461.687,16.466 461.762,16.401 L461.780,16.385 C462.359,15.879 462.903,15.416 463.430,14.968 C464.842,13.766 466.062,12.728 466.909,11.721 C467.858,10.594 468.300,9.543 468.300,8.413 C468.300,7.374 467.947,6.403 467.308,5.678 ZM462.913,14.362 C462.459,14.748 461.992,15.146 461.500,15.573 C461.007,15.146 460.541,14.749 460.087,14.362 C457.323,12.010 455.497,10.456 455.497,8.413 C455.497,7.569 455.779,6.784 456.290,6.204 C456.807,5.618 457.525,5.295 458.312,5.295 C459.405,5.295 460.111,5.967 460.511,6.531 C460.870,7.037 461.057,7.547 461.121,7.743 C461.175,7.906 461.327,8.017 461.500,8.017 C461.672,8.017 461.825,7.906 461.879,7.743 C461.942,7.547 462.130,7.037 462.489,6.531 C462.889,5.967 463.595,5.295 464.687,5.295 C465.474,5.295 466.192,5.618 466.710,6.204 C467.221,6.784 467.503,7.569 467.503,8.413 C467.503,10.456 465.677,12.010 462.913,14.362 Z"/>
<path fill-rule="evenodd"  fill="rgb(119, 119, 119)"
 d="M555.605,12.571 L555.605,15.999 L553.903,15.999 L553.903,12.571 L550.500,12.571 L550.500,10.857 L553.903,10.857 L553.903,7.428 L555.605,7.428 L555.605,10.857 L559.008,10.857 L559.008,12.571 L555.605,12.571 ZM541.991,7.428 L552.201,7.428 L552.201,9.142 L541.991,9.142 L541.991,7.428 ZM541.991,4.000 L552.201,4.000 L552.201,5.714 L541.991,5.714 L541.991,4.000 ZM548.798,12.571 L541.991,12.571 L541.991,10.857 L548.798,10.857 L548.798,12.571 Z"/>
<path fill-rule="evenodd"  fill="rgb(119, 119, 119)"
 d="M583.473,12.209 C582.790,12.209 582.181,12.538 581.791,13.046 L578.527,11.205 C578.604,10.982 578.646,10.743 578.646,10.497 C578.646,10.248 578.604,10.011 578.525,9.787 L581.786,7.948 C582.173,8.459 582.785,8.790 583.471,8.790 C584.640,8.790 585.595,7.828 585.595,6.645 C585.595,5.461 584.643,4.499 583.471,4.499 C582.299,4.499 581.347,5.461 581.347,6.645 C581.347,6.894 581.389,7.133 581.468,7.355 L578.209,9.194 C577.822,8.680 577.210,8.351 576.524,8.351 C575.355,8.351 574.400,9.313 574.400,10.497 C574.400,11.680 575.355,12.642 576.526,12.642 C577.212,12.642 577.824,12.311 578.214,11.798 L581.475,13.639 C581.396,13.863 581.352,14.105 581.352,14.354 C581.352,15.535 582.304,16.499 583.476,16.499 C584.648,16.499 585.600,15.538 585.600,14.354 C585.600,13.170 584.645,12.209 583.473,12.209 ZM583.473,5.175 C584.278,5.175 584.931,5.835 584.931,6.647 C584.931,7.459 584.278,8.120 583.473,8.120 C582.669,8.120 582.015,7.459 582.015,6.647 C582.015,5.835 582.672,5.175 583.473,5.175 ZM576.526,11.969 C575.722,11.969 575.068,11.309 575.068,10.497 C575.068,9.684 575.722,9.024 576.526,9.024 C577.331,9.024 577.984,9.684 577.984,10.497 C577.984,11.309 577.328,11.969 576.526,11.969 ZM583.473,15.824 C582.669,15.824 582.015,15.164 582.015,14.352 C582.015,13.539 582.669,12.879 583.473,12.879 C584.278,12.879 584.931,13.539 584.931,14.352 C584.931,15.164 584.278,15.824 583.473,15.824 Z"/>
<path fill-rule="evenodd"  fill="rgb(59, 200, 231)"
 d="M496.359,39.172 L491.847,39.172 L491.847,34.660 C491.847,34.455 491.568,34.009 491.010,34.009 C490.452,34.009 490.172,34.455 490.172,34.660 L490.172,39.172 L485.661,39.172 C485.455,39.172 485.010,39.451 485.010,40.009 C485.010,40.567 485.455,40.846 485.661,40.846 L490.173,40.846 L490.173,45.358 C490.173,45.563 490.452,46.009 491.010,46.009 C491.568,46.009 491.847,45.563 491.847,45.358 L491.847,40.846 L496.359,40.846 C496.564,40.846 497.010,40.567 497.010,40.009 C497.010,39.451 496.564,39.172 496.359,39.172 Z"/>
<path fill-rule="evenodd"  fill="rgb(59, 200, 231)"
 d="M525.093,46.499 L515.906,46.499 C515.131,46.499 514.500,45.868 514.500,45.093 L514.500,41.835 L515.437,41.835 L515.437,45.093 C515.437,45.352 515.648,45.562 515.906,45.562 L525.093,45.562 C525.352,45.562 525.562,45.352 525.562,45.093 L525.562,41.835 L526.500,41.835 L526.500,45.093 C526.500,45.868 525.869,46.499 525.093,46.499 ZM517.587,40.687 L518.250,40.024 L520.031,41.805 L520.031,34.499 L520.969,34.499 L520.969,41.805 L522.750,40.024 L523.413,40.687 L520.500,43.599 L517.587,40.687 Z"/>
<path fill-rule="evenodd"  fill="rgb(59, 200, 231)"
 d="M467.308,35.678 C466.637,34.918 465.706,34.499 464.687,34.499 C463.254,34.499 462.347,35.354 461.838,36.071 C461.706,36.257 461.594,36.444 461.500,36.619 C461.405,36.444 461.293,36.257 461.161,36.071 C460.653,35.354 459.745,34.499 458.312,34.499 C457.293,34.499 456.363,34.918 455.692,35.678 C455.052,36.403 454.700,37.374 454.700,38.413 C454.700,39.543 455.142,40.594 456.090,41.721 C456.938,42.728 458.158,43.766 459.570,44.968 C460.096,45.416 460.641,45.879 461.220,46.385 L461.237,46.401 C461.312,46.466 461.406,46.499 461.500,46.499 C461.593,46.499 461.687,46.466 461.762,46.401 L461.780,46.385 C462.359,45.879 462.903,45.416 463.430,44.968 C464.842,43.766 466.062,42.728 466.909,41.721 C467.858,40.594 468.300,39.543 468.300,38.413 C468.300,37.374 467.947,36.403 467.308,35.678 ZM462.913,44.362 C462.459,44.748 461.992,45.146 461.500,45.573 C461.007,45.146 460.541,44.749 460.087,44.362 C457.323,42.010 455.497,40.456 455.497,38.413 C455.497,37.569 455.779,36.784 456.290,36.204 C456.807,35.618 457.525,35.295 458.312,35.295 C459.405,35.295 460.111,35.967 460.511,36.531 C460.870,37.037 461.057,37.547 461.121,37.743 C461.175,37.906 461.327,38.017 461.500,38.017 C461.672,38.017 461.825,37.906 461.879,37.743 C461.942,37.547 462.130,37.037 462.489,36.531 C462.889,35.967 463.595,35.295 464.687,35.295 C465.474,35.295 466.192,35.618 466.710,36.204 C467.221,36.784 467.503,37.569 467.503,38.413 C467.503,40.456 465.677,42.010 462.913,44.362 Z"/>
<path fill-rule="evenodd"  fill="rgb(59, 200, 231)"
 d="M555.605,42.571 L555.605,45.999 L553.903,45.999 L553.903,42.571 L550.500,42.571 L550.500,40.857 L553.903,40.857 L553.903,37.428 L555.605,37.428 L555.605,40.857 L559.008,40.857 L559.008,42.571 L555.605,42.571 ZM541.991,37.428 L552.201,37.428 L552.201,39.142 L541.991,39.142 L541.991,37.428 ZM541.991,34.000 L552.201,34.000 L552.201,35.714 L541.991,35.714 L541.991,34.000 ZM548.798,42.571 L541.991,42.571 L541.991,40.857 L548.798,40.857 L548.798,42.571 Z"/>
<path fill-rule="evenodd"  fill="rgb(59, 200, 231)"
 d="M583.473,42.209 C582.790,42.209 582.181,42.538 581.791,43.046 L578.527,41.205 C578.604,40.982 578.646,40.743 578.646,40.497 C578.646,40.248 578.604,40.011 578.525,39.787 L581.786,37.948 C582.173,38.459 582.785,38.790 583.471,38.790 C584.640,38.790 585.595,37.828 585.595,36.645 C585.595,35.461 584.643,34.499 583.471,34.499 C582.299,34.499 581.347,35.461 581.347,36.645 C581.347,36.894 581.389,37.133 581.468,37.355 L578.209,39.194 C577.822,38.680 577.210,38.351 576.524,38.351 C575.355,38.351 574.400,39.313 574.400,40.497 C574.400,41.680 575.355,42.642 576.526,42.642 C577.212,42.642 577.824,42.311 578.214,41.798 L581.475,43.639 C581.396,43.863 581.352,44.105 581.352,44.354 C581.352,45.535 582.304,46.499 583.476,46.499 C584.648,46.499 585.600,45.538 585.600,44.354 C585.600,43.170 584.645,42.209 583.473,42.209 ZM583.473,35.175 C584.278,35.175 584.931,35.835 584.931,36.647 C584.931,37.459 584.278,38.120 583.473,38.120 C582.669,38.120 582.015,37.459 582.015,36.647 C582.015,35.835 582.672,35.175 583.473,35.175 ZM576.526,41.969 C575.722,41.969 575.068,41.309 575.068,40.497 C575.068,39.684 575.722,39.024 576.526,39.024 C577.331,39.024 577.984,39.684 577.984,40.497 C577.984,41.309 577.328,41.969 576.526,41.969 ZM583.473,45.824 C582.669,45.824 582.015,45.164 582.015,44.352 C582.015,43.539 582.669,42.879 583.473,42.879 C584.278,42.879 584.931,43.539 584.931,44.352 C584.931,45.164 584.278,45.824 583.473,45.824 Z"/>
</svg>
