<svg 
 xmlns="http://www.w3.org/2000/svg"
 xmlns:xlink="http://www.w3.org/1999/xlink"
 width="16px" height="15px">
<path fill-rule="evenodd"  fill="rgb(255, 255, 255)"
 d="M14.545,14.999 L13.727,12.749 L10.273,12.749 L9.455,14.999 L8.000,14.999 L11.273,5.999 L12.727,5.999 L16.000,14.999 L14.545,14.999 ZM12.000,7.998 L10.818,11.249 L13.182,11.249 L12.000,7.998 ZM6.807,7.901 L6.785,7.923 L8.633,9.806 L8.080,11.332 L5.818,8.999 L2.182,12.749 L1.153,11.688 L4.851,7.919 C3.942,6.877 3.215,5.722 2.684,4.499 L4.138,4.499 C4.582,5.392 5.142,6.236 5.818,7.012 C6.865,5.812 7.633,4.439 8.124,2.992 L-0.000,2.992 L-0.000,1.499 L5.091,1.499 L5.091,-0.001 L6.545,-0.001 L6.545,1.499 L11.636,1.499 L11.636,3.003 L9.505,3.003 C8.974,4.773 8.073,6.445 6.807,7.901 Z"/>
</svg>