<svg 
 xmlns="http://www.w3.org/2000/svg"
 xmlns:xlink="http://www.w3.org/1999/xlink"
 width="17px" height="13px">
<path fill-rule="evenodd"  fill="rgb(255, 255, 255)"
 d="M14.919,13.001 L2.079,13.001 C0.933,13.001 0.001,12.064 0.001,10.912 L0.001,2.090 C0.001,0.937 0.933,0.001 2.079,0.001 L14.922,0.001 C16.069,0.001 17.001,0.941 16.997,2.093 L16.997,10.912 C16.997,12.064 16.065,13.001 14.919,13.001 ZM16.048,10.912 L16.048,2.093 C16.048,1.468 15.541,0.959 14.919,0.959 L2.079,0.959 C1.457,0.959 0.950,1.468 0.950,2.093 L0.950,10.912 C0.950,11.537 1.457,12.046 2.079,12.046 L14.922,12.046 C15.545,12.046 16.051,11.537 16.051,10.912 L16.048,10.912 ZM14.912,11.050 C14.817,11.149 14.694,11.198 14.567,11.198 C14.451,11.198 14.332,11.156 14.240,11.067 L10.013,7.031 L8.828,8.098 C8.740,8.180 8.624,8.222 8.511,8.222 C8.399,8.222 8.286,8.183 8.195,8.102 L7.041,7.066 L2.790,11.064 C2.698,11.149 2.582,11.191 2.466,11.191 C2.339,11.191 2.213,11.138 2.118,11.039 C1.938,10.845 1.949,10.544 2.139,10.364 L6.327,6.423 L2.121,2.645 C1.924,2.468 1.907,2.168 2.083,1.970 C2.259,1.772 2.557,1.754 2.754,1.931 L7.305,6.023 C7.333,6.045 7.358,6.066 7.382,6.091 C7.382,6.094 7.386,6.098 7.389,6.101 L8.508,7.105 L14.240,1.934 C14.437,1.757 14.736,1.775 14.912,1.970 C15.088,2.168 15.070,2.468 14.877,2.645 L10.720,6.391 L14.894,10.375 C15.084,10.555 15.091,10.859 14.912,11.050 Z"/>
</svg>