<svg 
 xmlns="http://www.w3.org/2000/svg"
 xmlns:xlink="http://www.w3.org/1999/xlink"
 width="15px" height="4px">
<path fill-rule="evenodd"  fill="rgb(255, 255, 255)"
 d="M13.000,3.999 C11.897,3.999 11.000,3.102 11.000,1.999 C11.000,0.897 11.897,-0.001 13.000,-0.001 C14.103,-0.001 15.000,0.897 15.000,1.999 C15.000,3.102 14.103,3.999 13.000,3.999 ZM7.500,3.999 C6.397,3.999 5.500,3.102 5.500,1.999 C5.500,0.897 6.397,-0.001 7.500,-0.001 C8.603,-0.001 9.500,0.897 9.500,1.999 C9.500,3.102 8.603,3.999 7.500,3.999 ZM2.000,3.999 C0.897,3.999 -0.000,3.102 -0.000,1.999 C-0.000,0.897 0.897,-0.001 2.000,-0.001 C3.103,-0.001 4.000,0.897 4.000,1.999 C4.000,3.102 3.103,3.999 2.000,3.999 Z"/>
</svg>