<svg 
 xmlns="http://www.w3.org/2000/svg"
 xmlns:xlink="http://www.w3.org/1999/xlink"
 width="17px" height="17px">
<path fill-rule="evenodd"  fill="rgb(255, 255, 255)"
 d="M16.601,8.050 C16.572,8.053 16.547,8.057 16.518,8.057 C16.284,8.057 16.079,7.892 16.040,7.655 C15.756,5.983 14.965,4.458 13.751,3.244 C12.536,2.035 11.009,1.242 9.334,0.959 C9.068,0.912 8.892,0.664 8.936,0.399 C8.982,0.137 9.230,-0.043 9.492,0.004 C11.368,0.323 13.075,1.206 14.434,2.563 C15.792,3.919 16.676,5.624 16.996,7.497 C17.042,7.759 16.863,8.010 16.601,8.050 ZM9.360,3.087 C10.499,3.280 11.537,3.819 12.360,4.641 C13.183,5.462 13.722,6.500 13.916,7.637 C13.959,7.902 13.783,8.154 13.517,8.197 C13.489,8.201 13.463,8.204 13.435,8.204 C13.201,8.204 12.996,8.039 12.957,7.802 C12.795,6.862 12.353,6.008 11.670,5.326 C10.987,4.644 10.132,4.199 9.191,4.041 C8.925,3.998 8.752,3.743 8.799,3.481 C8.846,3.219 9.094,3.043 9.360,3.087 ZM6.140,6.284 C5.874,6.553 5.601,6.833 5.306,7.102 C5.525,7.587 5.827,8.064 6.276,8.631 C7.203,9.769 8.170,10.648 9.234,11.323 C9.338,11.387 9.460,11.448 9.590,11.513 C9.679,11.559 9.773,11.606 9.866,11.656 L11.002,10.526 C11.365,10.163 11.789,9.973 12.231,9.973 C12.676,9.973 13.097,10.167 13.445,10.529 L15.418,12.507 C15.781,12.866 15.972,13.293 15.972,13.738 C15.972,14.179 15.785,14.610 15.429,14.980 C15.274,15.141 15.116,15.295 14.962,15.442 C14.735,15.661 14.520,15.866 14.333,16.092 C14.329,16.099 14.322,16.103 14.319,16.110 C13.772,16.702 13.075,17.000 12.245,17.000 C12.173,17.000 12.094,16.996 12.019,16.993 C10.786,16.914 9.683,16.451 8.856,16.060 C6.693,15.015 4.799,13.533 3.225,11.656 C1.928,10.099 1.058,8.645 0.476,7.077 C0.239,6.438 -0.070,5.462 0.016,4.414 C0.074,3.765 0.336,3.205 0.796,2.745 L2.018,1.515 C2.021,1.511 2.021,1.511 2.025,1.508 C2.384,1.163 2.808,0.980 3.247,0.980 C3.685,0.980 4.102,1.163 4.451,1.508 C4.684,1.723 4.911,1.953 5.126,2.175 C5.234,2.290 5.349,2.405 5.461,2.516 L6.441,3.496 C7.196,4.250 7.196,5.225 6.441,5.979 C6.341,6.079 6.240,6.184 6.140,6.284 ZM5.759,4.181 L4.778,3.201 C4.663,3.083 4.548,2.968 4.436,2.853 C4.217,2.627 4.009,2.416 3.790,2.211 C3.786,2.207 3.782,2.204 3.779,2.200 C3.664,2.085 3.480,1.949 3.254,1.949 C3.071,1.949 2.884,2.039 2.708,2.204 L1.482,3.427 C1.184,3.725 1.022,4.073 0.987,4.493 C0.933,5.150 1.055,5.846 1.389,6.740 C1.932,8.204 2.751,9.568 3.976,11.043 C5.461,12.812 7.246,14.208 9.280,15.191 C10.024,15.546 11.016,15.963 12.083,16.031 C12.137,16.034 12.195,16.034 12.249,16.034 C12.809,16.034 13.237,15.851 13.600,15.464 C13.823,15.202 14.060,14.969 14.293,14.746 C14.448,14.595 14.592,14.459 14.732,14.308 C15.098,13.928 15.098,13.551 14.728,13.185 L12.748,11.208 C12.745,11.204 12.745,11.204 12.741,11.201 C12.630,11.078 12.446,10.939 12.224,10.939 C11.997,10.939 11.803,11.086 11.681,11.208 L10.452,12.435 C10.391,12.496 10.204,12.682 9.906,12.682 C9.787,12.682 9.672,12.654 9.550,12.593 C9.536,12.586 9.521,12.575 9.507,12.568 C9.403,12.503 9.280,12.442 9.151,12.378 C9.007,12.306 8.856,12.230 8.709,12.137 C7.556,11.409 6.510,10.458 5.518,9.238 L5.514,9.234 C4.968,8.541 4.609,7.960 4.354,7.343 C4.350,7.332 4.347,7.321 4.343,7.310 C4.278,7.106 4.221,6.804 4.530,6.496 C4.533,6.489 4.541,6.485 4.548,6.478 C4.860,6.198 5.148,5.911 5.450,5.602 C5.554,5.502 5.655,5.398 5.759,5.293 C6.140,4.913 6.140,4.561 5.759,4.181 Z"/>
</svg>