<svg 
 xmlns="http://www.w3.org/2000/svg"
 xmlns:xlink="http://www.w3.org/1999/xlink"
 width="1093px" height="65px">
<path fill-rule="evenodd"  fill="rgb(255, 255, 255)"
 d="M12.770,22.945 C12.712,22.975 12.649,22.989 12.588,22.989 C12.497,22.989 12.407,22.958 12.332,22.898 L3.543,15.837 C3.441,15.755 3.382,15.630 3.382,15.499 C3.383,15.368 3.441,15.243 3.543,15.162 L12.331,8.103 C12.457,8.002 12.628,7.984 12.770,8.056 C12.912,8.128 13.003,8.277 13.003,8.440 L13.003,22.561 C13.003,22.724 12.912,22.874 12.770,22.945 ZM12.171,9.317 L4.473,15.499 L12.171,21.684 L12.171,9.317 ZM2.413,22.989 C2.183,22.989 1.997,22.797 1.997,22.561 L1.997,8.440 C1.997,8.204 2.183,8.012 2.413,8.012 C2.642,8.012 2.828,8.204 2.828,8.440 L2.828,22.561 C2.828,22.797 2.643,22.989 2.413,22.989 Z"/>
<path fill-rule="evenodd"  fill="rgb(59, 200, 231)"
 d="M52.770,22.945 C52.712,22.975 52.649,22.989 52.588,22.989 C52.497,22.989 52.407,22.958 52.332,22.898 L43.543,15.837 C43.441,15.755 43.382,15.630 43.382,15.499 C43.383,15.368 43.441,15.243 43.543,15.162 L52.331,8.103 C52.457,8.002 52.628,7.984 52.770,8.056 C52.912,8.128 53.003,8.277 53.003,8.440 L53.003,22.561 C53.003,22.724 52.912,22.874 52.770,22.945 ZM52.171,9.317 L44.473,15.499 L52.171,21.684 L52.171,9.317 ZM42.413,22.989 C42.183,22.989 41.997,22.797 41.997,22.561 L41.997,8.440 C41.997,8.204 42.183,8.012 42.413,8.012 C42.642,8.012 42.828,8.204 42.828,8.440 L42.828,22.561 C42.828,22.797 42.643,22.989 42.413,22.989 Z"/>
<path fill-rule="evenodd"  fill="rgb(255, 255, 255)"
 d="M86.987,29.987 C78.716,29.987 71.987,23.258 71.987,14.987 C71.987,6.716 78.716,-0.013 86.987,-0.013 C95.258,-0.013 101.987,6.716 101.987,14.987 C101.987,23.258 95.258,29.987 86.987,29.987 ZM86.987,1.897 C79.769,1.897 73.897,7.769 73.897,14.987 C73.897,22.205 79.769,28.077 86.987,28.077 C94.205,28.077 100.077,22.205 100.077,14.987 C100.077,7.769 94.205,1.897 86.987,1.897 ZM89.793,21.295 C89.266,21.295 88.838,20.868 88.838,20.340 L88.838,9.634 C88.838,9.106 89.266,8.679 89.793,8.679 C90.321,8.679 90.748,9.106 90.748,9.634 L90.748,20.340 C90.748,20.868 90.321,21.295 89.793,21.295 ZM84.181,21.295 C83.653,21.295 83.226,20.868 83.226,20.340 L83.226,9.634 C83.226,9.106 83.653,8.679 84.181,8.679 C84.708,8.679 85.136,9.106 85.136,9.634 L85.136,20.340 C85.136,20.868 84.708,21.295 84.181,21.295 Z"/>
<path fill-rule="evenodd"  fill="rgb(59, 200, 231)"
 d="M126.987,29.987 C118.716,29.987 111.987,23.258 111.987,14.987 C111.987,6.716 118.716,-0.013 126.987,-0.013 C135.258,-0.013 141.987,6.716 141.987,14.987 C141.987,23.258 135.258,29.987 126.987,29.987 ZM126.987,1.897 C119.769,1.897 113.897,7.769 113.897,14.987 C113.897,22.205 119.769,28.077 126.987,28.077 C134.205,28.077 140.077,22.205 140.077,14.987 C140.077,7.769 134.205,1.897 126.987,1.897 ZM129.793,21.295 C129.266,21.295 128.838,20.868 128.838,20.340 L128.838,9.634 C128.838,9.106 129.266,8.679 129.793,8.679 C130.321,8.679 130.748,9.106 130.748,9.634 L130.748,20.340 C130.748,20.868 130.321,21.295 129.793,21.295 ZM124.181,21.295 C123.653,21.295 123.226,20.868 123.226,20.340 L123.226,9.634 C123.226,9.106 123.653,8.679 124.181,8.679 C124.708,8.679 125.136,9.106 125.136,9.634 L125.136,20.340 C125.136,20.868 124.708,21.295 124.181,21.295 Z"/>
<path fill-rule="evenodd"  fill="rgb(255, 255, 255)"
 d="M181.490,18.878 C180.453,22.747 177.971,25.981 174.501,27.984 C172.189,29.318 169.624,30.000 167.024,30.000 C165.721,30.000 164.410,29.829 163.117,29.482 C159.247,28.446 156.012,25.964 154.008,22.495 C152.005,19.026 151.473,14.984 152.510,11.114 C153.547,7.245 156.029,4.011 159.499,2.008 C162.969,0.005 167.012,-0.527 170.882,0.510 C174.753,1.546 177.988,4.028 179.991,7.497 C181.995,10.967 182.527,15.008 181.490,18.878 ZM178.638,8.278 C176.843,5.170 173.945,2.947 170.478,2.018 C169.321,1.708 168.145,1.555 166.978,1.555 C164.649,1.555 162.351,2.165 160.280,3.360 C157.171,5.155 154.948,8.052 154.019,11.519 C153.089,14.985 153.566,18.606 155.361,21.714 C157.156,24.822 160.054,27.045 163.522,27.974 C166.989,28.903 170.611,28.426 173.719,26.632 C176.828,24.837 179.052,21.940 179.981,18.473 C180.910,15.007 180.433,11.386 178.638,8.278 ZM175.604,9.130 C175.371,9.130 175.140,9.026 174.986,8.828 C173.377,6.749 170.957,5.353 168.348,4.996 C167.921,4.938 167.621,4.544 167.680,4.117 C167.738,3.689 168.133,3.390 168.559,3.449 C171.571,3.860 174.364,5.472 176.222,7.871 C176.486,8.212 176.423,8.703 176.082,8.967 C175.940,9.077 175.771,9.130 175.604,9.130 ZM175.015,14.996 C175.015,15.587 174.710,16.116 174.198,16.411 L164.552,21.979 C164.296,22.126 164.016,22.200 163.735,22.200 C163.454,22.200 163.173,22.127 162.918,21.979 C162.406,21.683 162.100,21.154 162.100,20.563 L162.100,9.429 C162.100,8.838 162.406,8.309 162.918,8.013 C163.429,7.718 164.040,7.718 164.552,8.013 L174.198,13.581 C174.709,13.876 175.015,14.405 175.015,14.996 ZM173.416,14.933 L163.771,9.366 C163.764,9.362 163.752,9.355 163.736,9.355 C163.725,9.355 163.713,9.358 163.699,9.366 C163.662,9.387 163.662,9.415 163.662,9.429 L163.662,20.563 C163.662,20.577 163.662,20.605 163.699,20.626 C163.735,20.647 163.759,20.633 163.771,20.626 L173.416,15.059 C173.428,15.052 173.453,15.038 173.453,14.996 C173.453,14.954 173.428,14.940 173.416,14.933 Z"/>
<path fill-rule="evenodd"  fill="rgb(59, 200, 231)"
 d="M221.490,18.878 C220.453,22.747 217.971,25.981 214.501,27.984 C212.189,29.318 209.624,30.000 207.024,30.000 C205.721,30.000 204.410,29.829 203.117,29.482 C199.247,28.446 196.012,25.964 194.008,22.495 C192.005,19.026 191.473,14.984 192.510,11.114 C193.547,7.245 196.029,4.011 199.499,2.008 C202.969,0.005 207.012,-0.527 210.882,0.510 C214.753,1.546 217.988,4.028 219.991,7.497 C221.995,10.967 222.527,15.008 221.490,18.878 ZM218.638,8.278 C216.843,5.170 213.945,2.947 210.478,2.018 C209.321,1.708 208.145,1.555 206.978,1.555 C204.649,1.555 202.351,2.165 200.280,3.360 C197.171,5.155 194.948,8.052 194.019,11.519 C193.089,14.985 193.566,18.606 195.361,21.714 C197.156,24.822 200.054,27.045 203.522,27.974 C206.989,28.903 210.611,28.426 213.719,26.632 C216.828,24.837 219.052,21.940 219.981,18.473 C220.910,15.007 220.433,11.386 218.638,8.278 ZM215.605,9.130 C215.371,9.130 215.140,9.026 214.986,8.828 C213.377,6.749 210.958,5.353 208.348,4.996 C207.921,4.938 207.622,4.544 207.680,4.117 C207.738,3.689 208.133,3.390 208.560,3.449 C211.571,3.860 214.364,5.472 216.222,7.871 C216.486,8.212 216.423,8.703 216.082,8.967 C215.940,9.077 215.771,9.130 215.605,9.130 ZM215.015,14.996 C215.015,15.587 214.709,16.116 214.198,16.411 L204.552,21.979 C204.296,22.126 204.016,22.200 203.735,22.200 C203.454,22.200 203.173,22.127 202.918,21.979 C202.406,21.683 202.100,21.154 202.100,20.563 L202.100,9.429 C202.100,8.838 202.406,8.309 202.918,8.013 C203.429,7.718 204.040,7.718 204.552,8.013 L214.198,13.581 C214.709,13.876 215.015,14.405 215.015,14.996 ZM213.416,14.933 L203.771,9.366 C203.764,9.362 203.752,9.355 203.736,9.355 C203.725,9.355 203.713,9.358 203.699,9.366 C203.662,9.387 203.662,9.415 203.662,9.429 L203.662,20.563 C203.662,20.577 203.662,20.605 203.699,20.626 C203.735,20.647 203.759,20.633 203.771,20.626 L213.416,15.059 C213.428,15.052 213.453,15.038 213.453,14.996 C213.453,14.954 213.428,14.940 213.416,14.933 Z"/>
<path fill-rule="evenodd"  fill="rgb(255, 255, 255)"
 d="M252.587,22.989 C252.357,22.989 252.171,22.797 252.171,22.561 L252.171,8.440 C252.171,8.204 252.358,8.012 252.587,8.012 C252.817,8.012 253.003,8.204 253.003,8.440 L253.003,22.561 C253.003,22.797 252.817,22.989 252.587,22.989 ZM251.457,15.837 L242.668,22.898 C242.593,22.958 242.503,22.989 242.412,22.989 C242.350,22.989 242.288,22.975 242.230,22.945 C242.088,22.874 241.997,22.724 241.997,22.561 L241.997,8.440 C241.997,8.277 242.088,8.128 242.230,8.056 C242.372,7.984 242.542,8.002 242.668,8.103 L251.457,15.162 C251.558,15.243 251.617,15.368 251.618,15.499 C251.618,15.630 251.558,15.755 251.457,15.837 ZM242.828,9.317 L242.828,21.684 L250.526,15.499 L242.828,9.317 Z"/>
<path fill-rule="evenodd"  fill="rgb(59, 200, 231)"
 d="M292.587,22.989 C292.357,22.989 292.171,22.797 292.171,22.561 L292.171,8.440 C292.171,8.204 292.358,8.012 292.587,8.012 C292.817,8.012 293.003,8.204 293.003,8.440 L293.003,22.561 C293.003,22.797 292.817,22.989 292.587,22.989 ZM291.457,15.837 L282.668,22.898 C282.593,22.958 282.503,22.989 282.412,22.989 C282.350,22.989 282.288,22.975 282.230,22.945 C282.088,22.874 281.997,22.724 281.997,22.561 L281.997,8.440 C281.997,8.277 282.088,8.128 282.230,8.056 C282.372,7.984 282.542,8.002 282.668,8.103 L291.457,15.162 C291.558,15.243 291.617,15.368 291.618,15.499 C291.618,15.630 291.558,15.755 291.457,15.837 ZM282.828,9.317 L282.828,21.684 L290.526,15.499 L282.828,9.317 Z"/>
<path fill-rule="evenodd"  fill="rgb(255, 255, 255)"
 d="M334.406,21.872 C334.319,21.960 334.205,22.004 334.092,22.004 C333.978,22.004 333.864,21.960 333.777,21.872 C333.603,21.695 333.603,21.408 333.777,21.231 C335.281,19.702 336.109,17.665 336.109,15.496 C336.109,13.326 335.281,11.289 333.777,9.760 C333.603,9.583 333.603,9.297 333.777,9.120 C333.951,8.943 334.232,8.943 334.406,9.120 C336.079,10.820 337.000,13.085 337.000,15.496 C337.000,17.907 336.079,20.171 334.406,21.872 ZM331.646,19.518 C331.532,19.518 331.418,19.474 331.331,19.386 C331.158,19.209 331.158,18.922 331.331,18.745 C332.184,17.879 332.653,16.725 332.653,15.496 C332.653,14.267 332.184,13.113 331.332,12.246 C331.158,12.069 331.158,11.783 331.332,11.606 C331.505,11.429 331.787,11.429 331.961,11.606 C332.982,12.643 333.544,14.025 333.544,15.496 C333.544,16.967 332.982,18.348 331.961,19.386 C331.874,19.474 331.760,19.518 331.646,19.518 ZM328.698,22.850 C328.513,22.950 328.311,23.000 328.110,23.000 C327.868,23.000 327.627,22.928 327.418,22.787 L322.059,19.154 L320.027,19.154 C319.506,19.154 319.078,18.745 319.035,18.226 L318.748,18.226 C317.784,18.226 317.000,17.429 317.000,16.448 L317.000,14.543 C317.000,13.563 317.784,12.765 318.748,12.765 L319.035,12.765 C319.078,12.246 319.506,11.837 320.027,11.837 L322.059,11.837 L327.418,8.205 C327.801,7.945 328.292,7.921 328.698,8.142 C329.104,8.363 329.357,8.791 329.357,9.260 L329.357,21.732 C329.357,22.200 329.104,22.628 328.698,22.850 ZM319.031,13.771 L318.748,13.771 C318.330,13.771 317.989,14.117 317.989,14.543 L317.989,16.448 C317.989,16.874 318.330,17.220 318.748,17.220 L319.031,17.220 L319.031,13.771 ZM321.714,12.843 L320.027,12.843 C320.023,12.843 320.020,12.847 320.020,12.850 L320.020,18.141 C320.020,18.145 320.023,18.148 320.027,18.148 L321.714,18.148 L321.714,12.843 ZM328.367,9.260 C328.367,9.118 328.272,9.051 328.231,9.029 C328.190,9.007 328.083,8.963 327.967,9.042 L322.703,12.610 L322.703,18.382 L327.967,21.950 C328.083,22.028 328.190,21.985 328.231,21.963 C328.272,21.940 328.367,21.873 328.367,21.732 L328.367,9.260 Z"/>
<path fill-rule="evenodd"  fill="rgb(59, 200, 231)"
 d="M374.406,21.872 C374.319,21.960 374.205,22.004 374.092,22.004 C373.978,22.004 373.864,21.960 373.777,21.872 C373.603,21.695 373.603,21.408 373.777,21.231 C375.281,19.702 376.109,17.665 376.109,15.496 C376.109,13.326 375.281,11.289 373.777,9.760 C373.603,9.583 373.603,9.297 373.777,9.120 C373.951,8.943 374.232,8.943 374.406,9.120 C376.079,10.820 377.000,13.085 377.000,15.496 C377.000,17.907 376.079,20.171 374.406,21.872 ZM371.646,19.518 C371.532,19.518 371.418,19.474 371.332,19.386 C371.158,19.209 371.158,18.922 371.332,18.745 C372.184,17.879 372.653,16.725 372.653,15.496 C372.653,14.267 372.184,13.113 371.332,12.246 C371.158,12.069 371.158,11.783 371.332,11.606 C371.505,11.429 371.787,11.429 371.961,11.606 C372.982,12.643 373.544,14.025 373.544,15.496 C373.544,16.967 372.982,18.348 371.961,19.386 C371.874,19.474 371.760,19.518 371.646,19.518 ZM368.698,22.850 C368.513,22.950 368.311,23.000 368.110,23.000 C367.868,23.000 367.627,22.928 367.418,22.787 L362.059,19.154 L360.027,19.154 C359.506,19.154 359.078,18.745 359.035,18.226 L358.748,18.226 C357.784,18.226 357.000,17.429 357.000,16.448 L357.000,14.543 C357.000,13.563 357.784,12.765 358.748,12.765 L359.035,12.765 C359.078,12.246 359.506,11.837 360.027,11.837 L362.059,11.837 L367.418,8.205 C367.801,7.945 368.292,7.921 368.698,8.142 C369.104,8.363 369.357,8.791 369.357,9.260 L369.357,21.732 C369.357,22.200 369.104,22.628 368.698,22.850 ZM359.031,13.771 L358.748,13.771 C358.330,13.771 357.989,14.117 357.989,14.543 L357.989,16.448 C357.989,16.874 358.330,17.220 358.748,17.220 L359.031,17.220 L359.031,13.771 ZM361.714,12.843 L360.027,12.843 C360.023,12.843 360.020,12.847 360.020,12.850 L360.020,18.141 C360.020,18.145 360.023,18.148 360.027,18.148 L361.714,18.148 L361.714,12.843 ZM368.367,9.260 C368.367,9.118 368.272,9.051 368.231,9.029 C368.190,9.007 368.083,8.963 367.967,9.042 L362.703,12.610 L362.703,18.382 L367.967,21.950 C368.083,22.028 368.190,21.985 368.231,21.963 C368.272,21.940 368.367,21.873 368.367,21.732 L368.367,9.260 Z"/>
<path fill-rule="evenodd"  fill="rgb(255, 255, 255)"
 d="M411.402,13.955 C411.304,14.051 411.177,14.100 411.050,14.100 C410.921,14.100 410.793,14.050 410.695,13.952 C410.500,13.756 410.502,13.439 410.698,13.245 L412.129,11.825 L411.519,11.825 C409.834,11.825 408.275,12.709 407.452,14.134 L406.811,15.243 C406.809,15.248 406.806,15.253 406.803,15.257 L406.033,16.591 C405.032,18.324 403.142,19.400 401.100,19.400 C400.824,19.400 400.600,19.176 400.600,18.900 C400.600,18.624 400.824,18.400 401.100,18.400 C402.785,18.400 404.344,17.515 405.167,16.091 L405.797,15.000 L405.167,13.909 C404.344,12.484 402.785,11.600 401.100,11.600 C400.824,11.600 400.600,11.376 400.600,11.100 C400.600,10.823 400.824,10.599 401.100,10.599 C403.142,10.599 405.032,11.676 406.033,13.408 L406.375,14.000 L406.586,13.633 C407.588,11.901 409.478,10.825 411.519,10.825 L412.079,10.825 L410.698,9.454 C410.502,9.260 410.500,8.943 410.695,8.747 C410.889,8.551 411.206,8.550 411.402,8.744 L412.956,10.286 C413.242,10.570 413.400,10.948 413.400,11.350 C413.400,11.752 413.242,12.129 412.956,12.413 L411.402,13.955 ZM407.864,16.461 C408.743,17.550 410.075,18.175 411.519,18.175 L412.129,18.175 L410.698,16.755 C410.502,16.560 410.500,16.244 410.695,16.048 C410.889,15.852 411.206,15.850 411.402,16.045 L412.956,17.586 C413.242,17.870 413.400,18.248 413.400,18.650 C413.400,19.052 413.242,19.430 412.956,19.714 L411.402,21.255 C411.304,21.352 411.177,21.400 411.050,21.400 C410.921,21.400 410.793,21.351 410.695,21.252 C410.500,21.056 410.502,20.739 410.698,20.545 L412.079,19.175 L411.519,19.175 C409.772,19.175 408.156,18.415 407.086,17.089 C406.912,16.874 406.946,16.559 407.161,16.386 C407.376,16.212 407.691,16.246 407.864,16.461 Z"/>
<path fill-rule="evenodd"  fill="rgb(59, 200, 231)"
 d="M451.402,13.955 C451.304,14.051 451.177,14.100 451.050,14.100 C450.921,14.100 450.793,14.050 450.695,13.952 C450.500,13.756 450.502,13.439 450.698,13.245 L452.129,11.825 L451.519,11.825 C449.834,11.825 448.275,12.709 447.452,14.134 L446.811,15.243 C446.809,15.248 446.806,15.253 446.803,15.257 L446.033,16.591 C445.032,18.324 443.142,19.400 441.100,19.400 C440.824,19.400 440.600,19.176 440.600,18.900 C440.600,18.624 440.824,18.400 441.100,18.400 C442.786,18.400 444.344,17.515 445.167,16.091 L445.797,15.000 L445.167,13.909 C444.344,12.484 442.786,11.600 441.100,11.600 C440.824,11.600 440.600,11.376 440.600,11.100 C440.600,10.823 440.824,10.599 441.100,10.599 C443.142,10.599 445.032,11.676 446.033,13.408 L446.375,14.000 L446.587,13.633 C447.588,11.901 449.478,10.825 451.519,10.825 L452.079,10.825 L450.698,9.454 C450.502,9.260 450.500,8.943 450.695,8.747 C450.889,8.551 451.206,8.550 451.402,8.744 L452.956,10.286 C453.242,10.570 453.400,10.948 453.400,11.350 C453.400,11.752 453.242,12.129 452.956,12.413 L451.402,13.955 ZM447.864,16.461 C448.743,17.550 450.075,18.175 451.519,18.175 L452.129,18.175 L450.698,16.755 C450.502,16.560 450.500,16.244 450.695,16.048 C450.889,15.852 451.206,15.850 451.402,16.045 L452.956,17.586 C453.242,17.870 453.400,18.248 453.400,18.650 C453.400,19.052 453.242,19.430 452.956,19.714 L451.402,21.255 C451.304,21.352 451.177,21.400 451.050,21.400 C450.921,21.400 450.793,21.351 450.695,21.252 C450.500,21.056 450.502,20.739 450.698,20.545 L452.079,19.175 L451.519,19.175 C449.772,19.175 448.156,18.415 447.086,17.089 C446.912,16.874 446.946,16.559 447.161,16.386 C447.376,16.212 447.691,16.246 447.864,16.461 Z"/>
<path fill-rule="evenodd"  fill="rgb(59, 200, 231)"
 d="M521.010,9.552 C520.980,9.286 521.152,9.043 521.398,9.011 C521.645,8.979 521.869,9.165 521.899,9.431 L522.167,11.685 C523.183,10.053 524.900,9.043 526.752,9.043 C529.112,9.043 531.210,10.667 531.979,13.075 C532.061,13.325 531.934,13.600 531.703,13.689 C531.658,13.705 531.606,13.713 531.553,13.713 C531.367,13.713 531.195,13.584 531.128,13.390 C530.486,11.370 528.723,10.013 526.752,10.013 C525.139,10.013 523.638,10.934 522.802,12.404 L525.042,12.129 C525.289,12.097 525.513,12.291 525.535,12.558 C525.558,12.824 525.386,13.067 525.139,13.091 L521.914,13.487 C521.899,13.487 521.876,13.487 521.861,13.487 C521.637,13.487 521.443,13.309 521.421,13.067 L521.010,9.552 ZM532.106,16.040 L528.880,16.435 C528.634,16.468 528.455,16.702 528.484,16.969 C528.514,17.235 528.731,17.429 528.977,17.397 L530.926,17.163 C530.164,18.899 528.544,20.022 526.745,20.022 C524.721,20.022 522.899,18.560 522.317,16.468 C522.242,16.209 521.996,16.064 521.757,16.145 C521.518,16.225 521.383,16.492 521.458,16.751 C521.794,17.954 522.496,19.037 523.422,19.796 C524.385,20.580 525.535,21.000 526.745,21.000 C528.955,21.000 530.933,19.578 531.807,17.421 L532.121,20.111 C532.151,20.354 532.345,20.531 532.561,20.531 C532.584,20.531 532.599,20.531 532.621,20.531 C532.867,20.499 533.039,20.257 533.009,19.990 L532.591,16.476 C532.569,16.201 532.352,16.015 532.106,16.040 Z"/>
<path fill-rule="evenodd"  fill="rgb(255, 255, 255)"
 d="M481.010,9.552 C480.980,9.286 481.152,9.043 481.398,9.011 C481.645,8.979 481.869,9.165 481.899,9.431 L482.168,11.685 C483.183,10.053 484.900,9.043 486.752,9.043 C489.112,9.043 491.210,10.667 491.979,13.075 C492.061,13.325 491.934,13.600 491.703,13.689 C491.658,13.705 491.606,13.713 491.553,13.713 C491.367,13.713 491.195,13.584 491.128,13.390 C490.486,11.370 488.723,10.013 486.752,10.013 C485.139,10.013 483.638,10.934 482.802,12.404 L485.042,12.129 C485.289,12.097 485.513,12.291 485.535,12.558 C485.558,12.824 485.386,13.067 485.139,13.091 L481.914,13.487 C481.899,13.487 481.876,13.487 481.861,13.487 C481.637,13.487 481.443,13.309 481.421,13.067 L481.010,9.552 ZM492.106,16.040 L488.880,16.435 C488.634,16.468 488.455,16.702 488.484,16.969 C488.514,17.235 488.731,17.429 488.977,17.397 L490.926,17.163 C490.164,18.899 488.544,20.022 486.745,20.022 C484.721,20.022 482.899,18.560 482.317,16.468 C482.242,16.209 481.996,16.064 481.757,16.145 C481.518,16.225 481.383,16.492 481.458,16.751 C481.794,17.954 482.496,19.037 483.422,19.796 C484.385,20.580 485.535,21.000 486.745,21.000 C488.955,21.000 490.933,19.578 491.807,17.421 L492.121,20.111 C492.151,20.354 492.345,20.531 492.561,20.531 C492.584,20.531 492.599,20.531 492.621,20.531 C492.867,20.499 493.039,20.257 493.009,19.990 L492.591,16.476 C492.569,16.201 492.352,16.015 492.106,16.040 Z"/>
<path fill-rule="evenodd"  fill="rgb(255, 255, 255)"
 d="M574.687,9.473 C573.799,8.523 572.567,8.000 571.219,8.000 C569.322,8.000 568.121,9.068 567.448,9.965 C567.273,10.197 567.125,10.430 567.000,10.650 C566.875,10.430 566.726,10.197 566.552,9.965 C565.878,9.068 564.678,8.000 562.781,8.000 C561.433,8.000 560.201,8.523 559.313,9.473 C558.466,10.380 558.000,11.594 558.000,12.892 C558.000,14.304 558.585,15.619 559.840,17.027 C560.962,18.286 562.576,19.583 564.446,21.086 C565.142,21.646 565.863,22.225 566.629,22.858 L566.652,22.877 C566.752,22.959 566.876,23.000 567.000,23.000 C567.124,23.000 567.248,22.959 567.347,22.877 L567.370,22.858 C568.137,22.225 568.857,21.646 569.554,21.086 C571.423,19.583 573.037,18.286 574.160,17.027 C575.415,15.619 576.000,14.304 576.000,12.892 C576.000,11.594 575.533,10.380 574.687,9.473 ZM568.870,20.329 C568.269,20.811 567.652,21.308 567.000,21.842 C566.348,21.308 565.730,20.811 565.130,20.329 C561.471,17.388 559.054,15.445 559.054,12.892 C559.054,11.836 559.427,10.856 560.104,10.131 C560.789,9.398 561.740,8.995 562.781,8.995 C564.227,8.995 565.162,9.835 565.691,10.540 C566.166,11.172 566.414,11.809 566.498,12.054 C566.569,12.259 566.772,12.397 567.000,12.397 C567.228,12.397 567.431,12.259 567.501,12.054 C567.586,11.809 567.834,11.172 568.309,10.540 C568.838,9.835 569.773,8.995 571.219,8.995 C572.260,8.995 573.211,9.398 573.895,10.131 C574.572,10.856 574.945,11.836 574.945,12.892 C574.945,15.445 572.528,17.388 568.870,20.329 Z"/>
<path fill-rule="evenodd"  fill="rgb(59, 200, 231)"
 d="M614.687,9.473 C613.799,8.523 612.567,8.000 611.219,8.000 C609.322,8.000 608.121,9.068 607.448,9.965 C607.273,10.197 607.125,10.430 607.000,10.650 C606.875,10.430 606.727,10.197 606.552,9.965 C605.879,9.068 604.678,8.000 602.781,8.000 C601.433,8.000 600.201,8.523 599.313,9.473 C598.466,10.380 598.000,11.594 598.000,12.892 C598.000,14.304 598.585,15.618 599.840,17.027 C600.962,18.286 602.576,19.583 604.446,21.086 C605.142,21.646 605.863,22.225 606.629,22.858 L606.652,22.877 C606.752,22.959 606.876,23.000 607.000,23.000 C607.124,23.000 607.248,22.959 607.347,22.877 L607.370,22.858 C608.137,22.225 608.857,21.646 609.554,21.086 C611.423,19.583 613.037,18.286 614.160,17.027 C615.415,15.618 616.000,14.304 616.000,12.892 C616.000,11.594 615.533,10.380 614.687,9.473 ZM608.870,20.329 C608.269,20.811 607.651,21.308 607.000,21.842 C606.348,21.308 605.730,20.811 605.130,20.329 C601.471,17.388 599.054,15.445 599.054,12.892 C599.054,11.836 599.427,10.856 600.104,10.131 C600.789,9.398 601.740,8.995 602.781,8.995 C604.227,8.995 605.162,9.835 605.691,10.540 C606.166,11.172 606.414,11.809 606.498,12.054 C606.569,12.259 606.772,12.397 607.000,12.397 C607.228,12.397 607.431,12.259 607.501,12.054 C607.586,11.809 607.834,11.172 608.309,10.540 C608.838,9.835 609.773,8.995 611.219,8.995 C612.260,8.995 613.211,9.398 613.895,10.131 C614.572,10.856 614.945,11.836 614.945,12.892 C614.945,15.445 612.528,17.388 608.870,20.329 Z"/>
<path fill-rule="evenodd"  fill="rgb(255, 255, 255)"
 d="M653.000,16.999 C651.897,16.999 651.000,16.101 651.000,14.999 C651.000,13.896 651.897,12.999 653.000,12.999 C654.103,12.999 655.000,13.896 655.000,14.999 C655.000,16.101 654.103,16.999 653.000,16.999 ZM647.500,16.999 C646.397,16.999 645.500,16.101 645.500,14.999 C645.500,13.896 646.397,12.999 647.500,12.999 C648.603,12.999 649.500,13.896 649.500,14.999 C649.500,16.101 648.603,16.999 647.500,16.999 ZM642.000,16.999 C640.897,16.999 640.000,16.101 640.000,14.999 C640.000,13.896 640.897,12.999 642.000,12.999 C643.102,12.999 644.000,13.896 644.000,14.999 C644.000,16.101 643.102,16.999 642.000,16.999 Z"/>
<path fill-rule="evenodd"  fill="rgb(59, 200, 231)"
 d="M693.000,16.999 C691.897,16.999 691.000,16.102 691.000,14.999 C691.000,13.896 691.897,12.999 693.000,12.999 C694.103,12.999 695.000,13.896 695.000,14.999 C695.000,16.102 694.103,16.999 693.000,16.999 ZM687.500,16.999 C686.397,16.999 685.500,16.102 685.500,14.999 C685.500,13.896 686.397,12.999 687.500,12.999 C688.602,12.999 689.500,13.896 689.500,14.999 C689.500,16.102 688.602,16.999 687.500,16.999 ZM682.000,16.999 C680.897,16.999 680.000,16.102 680.000,14.999 C680.000,13.896 680.897,12.999 682.000,12.999 C683.102,12.999 684.000,13.896 684.000,14.999 C684.000,16.102 683.102,16.999 682.000,16.999 Z"/>
<path fill-rule="evenodd"  fill="rgb(59, 200, 231)"
 d="M736.227,17.055 C735.800,17.055 735.454,16.703 735.454,16.269 L735.454,13.731 C735.454,13.297 735.800,12.945 736.227,12.945 C736.654,12.945 737.000,13.297 737.000,13.731 L737.000,16.269 C737.000,16.703 736.654,17.055 736.227,17.055 ZM732.536,19.570 C732.109,19.570 731.763,19.218 731.763,18.784 L731.763,11.215 C731.763,10.781 732.109,10.429 732.536,10.429 C732.963,10.429 733.309,10.781 733.309,11.215 L733.309,18.784 C733.309,19.218 732.963,19.570 732.536,19.570 ZM728.845,20.420 C728.418,20.420 728.073,20.069 728.073,19.635 L728.073,10.365 C728.073,9.931 728.418,9.580 728.845,9.580 C729.272,9.580 729.618,9.931 729.618,10.365 L729.618,19.635 C729.618,20.069 729.272,20.420 728.845,20.420 ZM725.155,25.000 C724.728,25.000 724.382,24.648 724.382,24.214 L724.382,5.785 C724.382,5.351 724.728,5.000 725.155,5.000 C725.581,5.000 725.927,5.351 725.927,5.785 L725.927,24.214 C725.927,24.648 725.581,25.000 725.155,25.000 ZM721.464,21.840 C721.037,21.840 720.691,21.489 720.691,21.055 L720.691,8.945 C720.691,8.511 721.037,8.159 721.464,8.159 C721.891,8.159 722.236,8.511 722.236,8.945 L722.236,21.055 C722.236,21.489 721.891,21.840 721.464,21.840 ZM717.773,19.570 C717.346,19.570 717.000,19.218 717.000,18.784 L717.000,11.215 C717.000,10.781 717.346,10.429 717.773,10.429 C718.200,10.429 718.546,10.781 718.546,11.215 L718.546,18.784 C718.546,19.218 718.200,19.570 717.773,19.570 Z"/>
<path fill-rule="evenodd"  fill="rgb(255, 255, 255)"
 d="M773.242,22.999 L761.758,22.999 C760.788,22.999 760.000,22.210 760.000,21.241 L760.000,17.168 L761.171,17.168 L761.171,21.241 C761.171,21.564 761.434,21.827 761.758,21.827 L773.242,21.827 C773.565,21.827 773.828,21.564 773.828,21.241 L773.828,17.168 L775.000,17.168 L775.000,21.241 C775.000,22.210 774.211,22.999 773.242,22.999 ZM763.858,15.734 L764.687,14.904 L766.914,17.131 L766.914,7.999 L768.086,7.999 L768.086,17.131 L770.312,14.904 L771.141,15.734 L767.500,19.374 L763.858,15.734 Z"/>
<path fill-rule="evenodd"  fill="rgb(255, 255, 255)"
 d="M807.945,14.991 L810.802,12.134 C811.065,11.871 811.065,11.445 810.802,11.182 C810.539,10.919 810.113,10.919 809.850,11.182 L806.993,14.039 L804.135,11.182 C803.872,10.919 803.446,10.919 803.183,11.182 C802.920,11.445 802.920,11.871 803.183,12.134 L806.040,14.991 L803.183,17.849 C802.920,18.112 802.920,18.538 803.183,18.801 C803.446,19.064 803.872,19.064 804.135,18.801 L806.993,15.944 L809.850,18.801 C810.113,19.064 810.539,19.064 810.802,18.801 C811.065,18.538 811.065,18.112 810.802,17.849 L807.945,14.991 Z"/>
<path fill-rule="evenodd"  fill="rgb(255, 255, 255)"
 d="M894.406,21.872 C894.319,21.960 894.205,22.004 894.092,22.004 C893.978,22.004 893.864,21.960 893.777,21.872 C893.603,21.695 893.603,21.408 893.777,21.231 C895.281,19.702 896.109,17.665 896.109,15.496 C896.109,13.326 895.281,11.289 893.777,9.760 C893.603,9.583 893.603,9.297 893.777,9.120 C893.951,8.943 894.232,8.943 894.406,9.120 C896.079,10.820 897.000,13.085 897.000,15.496 C897.000,17.907 896.079,20.171 894.406,21.872 ZM891.646,19.518 C891.532,19.518 891.418,19.474 891.332,19.386 C891.158,19.209 891.158,18.922 891.332,18.745 C892.184,17.879 892.653,16.725 892.653,15.496 C892.653,14.267 892.184,13.113 891.332,12.246 C891.158,12.069 891.158,11.783 891.332,11.606 C891.505,11.429 891.787,11.429 891.961,11.606 C892.982,12.643 893.544,14.025 893.544,15.496 C893.544,16.967 892.982,18.348 891.961,19.386 C891.874,19.474 891.760,19.518 891.646,19.518 ZM888.698,22.850 C888.513,22.950 888.311,23.000 888.110,23.000 C887.868,23.000 887.627,22.928 887.418,22.787 L882.059,19.154 L880.027,19.154 C879.506,19.154 879.078,18.745 879.035,18.226 L878.748,18.226 C877.784,18.226 877.000,17.429 877.000,16.448 L877.000,14.543 C877.000,13.563 877.784,12.765 878.748,12.765 L879.035,12.765 C879.078,12.246 879.506,11.837 880.027,11.837 L882.059,11.837 L887.418,8.205 C887.801,7.945 888.292,7.921 888.698,8.142 C889.104,8.363 889.357,8.791 889.357,9.260 L889.357,21.732 C889.357,22.200 889.104,22.628 888.698,22.850 ZM879.031,13.771 L878.748,13.771 C878.330,13.771 877.989,14.117 877.989,14.543 L877.989,16.448 C877.989,16.874 878.330,17.220 878.748,17.220 L879.031,17.220 L879.031,13.771 ZM881.714,12.843 L880.027,12.843 C880.023,12.843 880.020,12.847 880.020,12.850 L880.020,18.141 C880.020,18.145 880.023,18.148 880.027,18.148 L881.714,18.148 L881.714,12.843 ZM888.367,9.260 C888.367,9.118 888.272,9.051 888.231,9.029 C888.190,9.007 888.083,8.963 887.967,9.042 L882.703,12.610 L882.703,18.382 L887.967,21.950 C888.083,22.028 888.190,21.985 888.231,21.963 C888.272,21.940 888.367,21.873 888.367,21.732 L888.367,9.260 Z"/>
<path fill-rule="evenodd"  fill="rgb(59, 200, 231)"
 d="M934.406,21.872 C934.319,21.960 934.205,22.004 934.092,22.004 C933.978,22.004 933.864,21.960 933.777,21.872 C933.603,21.695 933.603,21.408 933.777,21.231 C935.281,19.702 936.109,17.665 936.109,15.496 C936.109,13.326 935.281,11.289 933.777,9.760 C933.603,9.583 933.603,9.297 933.777,9.120 C933.951,8.943 934.232,8.943 934.406,9.120 C936.079,10.820 937.000,13.085 937.000,15.496 C937.000,17.907 936.079,20.171 934.406,21.872 ZM931.646,19.518 C931.532,19.518 931.418,19.474 931.331,19.386 C931.158,19.209 931.158,18.922 931.331,18.745 C932.184,17.879 932.653,16.725 932.653,15.496 C932.653,14.267 932.184,13.113 931.332,12.246 C931.158,12.069 931.158,11.783 931.332,11.606 C931.505,11.429 931.787,11.429 931.961,11.606 C932.982,12.643 933.543,14.025 933.543,15.496 C933.543,16.967 932.982,18.348 931.961,19.386 C931.874,19.474 931.760,19.518 931.646,19.518 ZM928.698,22.850 C928.513,22.950 928.311,23.000 928.110,23.000 C927.868,23.000 927.627,22.928 927.418,22.787 L922.059,19.154 L920.027,19.154 C919.506,19.154 919.078,18.745 919.035,18.226 L918.748,18.226 C917.784,18.226 917.000,17.429 917.000,16.448 L917.000,14.543 C917.000,13.563 917.784,12.765 918.748,12.765 L919.035,12.765 C919.078,12.246 919.506,11.837 920.027,11.837 L922.059,11.837 L927.418,8.205 C927.801,7.945 928.292,7.921 928.698,8.142 C929.104,8.363 929.357,8.791 929.357,9.260 L929.357,21.732 C929.357,22.200 929.104,22.628 928.698,22.850 ZM919.031,13.771 L918.748,13.771 C918.330,13.771 917.989,14.117 917.989,14.543 L917.989,16.448 C917.989,16.874 918.330,17.220 918.748,17.220 L919.031,17.220 L919.031,13.771 ZM921.714,12.843 L920.027,12.843 C920.023,12.843 920.020,12.847 920.020,12.850 L920.020,18.141 C920.020,18.145 920.023,18.148 920.027,18.148 L921.714,18.148 L921.714,12.843 ZM928.367,9.260 C928.367,9.118 928.272,9.051 928.231,9.029 C928.190,9.007 928.083,8.963 927.967,9.042 L922.703,12.610 L922.703,18.382 L927.967,21.950 C928.083,22.028 928.190,21.985 928.231,21.963 C928.272,21.940 928.367,21.873 928.367,21.732 L928.367,9.260 Z"/>
<path fill-rule="evenodd"  fill="rgb(255, 255, 255)"
 d="M971.402,13.955 C971.304,14.051 971.177,14.100 971.050,14.100 C970.921,14.100 970.793,14.050 970.695,13.952 C970.500,13.756 970.502,13.439 970.698,13.245 L972.129,11.825 L971.519,11.825 C969.834,11.825 968.275,12.709 967.452,14.134 L966.811,15.243 C966.809,15.248 966.806,15.253 966.803,15.257 L966.033,16.591 C965.032,18.324 963.142,19.400 961.100,19.400 C960.824,19.400 960.600,19.176 960.600,18.900 C960.600,18.624 960.824,18.400 961.100,18.400 C962.785,18.400 964.344,17.515 965.167,16.091 L965.797,15.000 L965.167,13.909 C964.344,12.484 962.785,11.600 961.100,11.600 C960.824,11.600 960.600,11.376 960.600,11.100 C960.600,10.823 960.824,10.599 961.100,10.599 C963.142,10.599 965.032,11.676 966.033,13.408 L966.375,14.000 L966.587,13.633 C967.588,11.901 969.478,10.825 971.519,10.825 L972.079,10.825 L970.698,9.454 C970.502,9.260 970.500,8.943 970.695,8.747 C970.889,8.551 971.206,8.550 971.402,8.744 L972.956,10.286 C973.242,10.570 973.400,10.948 973.400,11.350 C973.400,11.752 973.242,12.129 972.956,12.413 L971.402,13.955 ZM967.864,16.461 C968.743,17.550 970.075,18.175 971.519,18.175 L972.129,18.175 L970.698,16.755 C970.502,16.560 970.500,16.244 970.695,16.048 C970.889,15.852 971.206,15.850 971.402,16.045 L972.956,17.586 C973.242,17.870 973.400,18.248 973.400,18.650 C973.400,19.052 973.242,19.430 972.956,19.714 L971.402,21.255 C971.304,21.352 971.177,21.400 971.050,21.400 C970.921,21.400 970.793,21.351 970.695,21.252 C970.500,21.056 970.502,20.739 970.698,20.545 L972.079,19.175 L971.519,19.175 C969.772,19.175 968.156,18.415 967.086,17.089 C966.912,16.874 966.946,16.559 967.161,16.386 C967.376,16.212 967.691,16.246 967.864,16.461 Z"/>
<path fill-rule="evenodd"  fill="rgb(59, 200, 231)"
 d="M1011.402,13.955 C1011.304,14.051 1011.177,14.100 1011.050,14.100 C1010.921,14.100 1010.793,14.050 1010.695,13.952 C1010.500,13.756 1010.502,13.439 1010.698,13.245 L1012.129,11.825 L1011.519,11.825 C1009.834,11.825 1008.275,12.709 1007.452,14.134 L1006.811,15.243 C1006.809,15.248 1006.806,15.253 1006.803,15.257 L1006.033,16.591 C1005.032,18.324 1003.142,19.400 1001.100,19.400 C1000.824,19.400 1000.600,19.176 1000.600,18.900 C1000.600,18.624 1000.824,18.400 1001.100,18.400 C1002.786,18.400 1004.344,17.515 1005.167,16.091 L1005.797,15.000 L1005.167,13.909 C1004.344,12.484 1002.786,11.600 1001.100,11.600 C1000.824,11.600 1000.600,11.376 1000.600,11.100 C1000.600,10.823 1000.824,10.599 1001.100,10.599 C1003.142,10.599 1005.032,11.676 1006.033,13.408 L1006.375,14.000 L1006.586,13.633 C1007.588,11.901 1009.478,10.825 1011.519,10.825 L1012.079,10.825 L1010.698,9.454 C1010.502,9.260 1010.500,8.943 1010.695,8.747 C1010.889,8.551 1011.206,8.550 1011.402,8.744 L1012.956,10.286 C1013.242,10.570 1013.400,10.948 1013.400,11.350 C1013.400,11.752 1013.242,12.129 1012.956,12.413 L1011.402,13.955 ZM1007.864,16.461 C1008.743,17.550 1010.075,18.175 1011.519,18.175 L1012.129,18.175 L1010.698,16.755 C1010.502,16.560 1010.500,16.244 1010.695,16.048 C1010.889,15.852 1011.206,15.850 1011.402,16.045 L1012.956,17.586 C1013.242,17.870 1013.400,18.248 1013.400,18.650 C1013.400,19.052 1013.242,19.430 1012.956,19.714 L1011.402,21.255 C1011.304,21.352 1011.177,21.400 1011.050,21.400 C1010.921,21.400 1010.793,21.351 1010.695,21.252 C1010.500,21.056 1010.502,20.739 1010.698,20.545 L1012.079,19.175 L1011.519,19.175 C1009.772,19.175 1008.156,18.415 1007.086,17.089 C1006.912,16.874 1006.946,16.559 1007.161,16.386 C1007.376,16.212 1007.691,16.246 1007.864,16.461 Z"/>
<path fill-rule="evenodd"  fill="rgb(59, 200, 231)"
 d="M1081.010,9.552 C1080.980,9.286 1081.152,9.043 1081.398,9.011 C1081.645,8.979 1081.869,9.165 1081.899,9.431 L1082.168,11.685 C1083.183,10.053 1084.900,9.043 1086.752,9.043 C1089.112,9.043 1091.210,10.667 1091.979,13.075 C1092.061,13.325 1091.934,13.600 1091.703,13.689 C1091.658,13.705 1091.606,13.713 1091.553,13.713 C1091.367,13.713 1091.195,13.584 1091.128,13.390 C1090.486,11.370 1088.723,10.013 1086.752,10.013 C1085.139,10.013 1083.638,10.934 1082.802,12.404 L1085.042,12.129 C1085.289,12.097 1085.513,12.291 1085.535,12.558 C1085.558,12.824 1085.386,13.067 1085.139,13.091 L1081.914,13.487 C1081.899,13.487 1081.876,13.487 1081.861,13.487 C1081.637,13.487 1081.443,13.309 1081.421,13.067 L1081.010,9.552 ZM1092.106,16.040 L1088.880,16.435 C1088.634,16.468 1088.455,16.702 1088.484,16.969 C1088.514,17.235 1088.731,17.429 1088.977,17.397 L1090.926,17.163 C1090.164,18.899 1088.544,20.022 1086.745,20.022 C1084.721,20.022 1082.899,18.560 1082.317,16.468 C1082.242,16.209 1081.996,16.064 1081.757,16.145 C1081.518,16.225 1081.383,16.492 1081.458,16.751 C1081.794,17.954 1082.496,19.037 1083.422,19.796 C1084.385,20.580 1085.535,21.000 1086.745,21.000 C1088.955,21.000 1090.933,19.578 1091.807,17.421 L1092.121,20.111 C1092.151,20.354 1092.345,20.531 1092.561,20.531 C1092.584,20.531 1092.599,20.531 1092.621,20.531 C1092.867,20.499 1093.039,20.257 1093.009,19.990 L1092.591,16.476 C1092.569,16.201 1092.352,16.015 1092.106,16.040 Z"/>
<path fill-rule="evenodd"  fill="rgb(255, 255, 255)"
 d="M1041.010,9.552 C1040.980,9.286 1041.152,9.043 1041.398,9.011 C1041.645,8.979 1041.869,9.165 1041.899,9.431 L1042.168,11.685 C1043.183,10.053 1044.900,9.043 1046.752,9.043 C1049.112,9.043 1051.210,10.667 1051.979,13.075 C1052.061,13.325 1051.934,13.600 1051.703,13.689 C1051.658,13.705 1051.606,13.713 1051.553,13.713 C1051.367,13.713 1051.195,13.584 1051.128,13.390 C1050.486,11.370 1048.723,10.013 1046.752,10.013 C1045.139,10.013 1043.638,10.934 1042.802,12.404 L1045.042,12.129 C1045.289,12.097 1045.513,12.291 1045.535,12.558 C1045.558,12.824 1045.386,13.067 1045.139,13.091 L1041.914,13.487 C1041.899,13.487 1041.876,13.487 1041.861,13.487 C1041.637,13.487 1041.443,13.309 1041.421,13.067 L1041.010,9.552 ZM1052.106,16.040 L1048.880,16.435 C1048.634,16.468 1048.455,16.702 1048.484,16.969 C1048.514,17.235 1048.731,17.429 1048.977,17.397 L1050.926,17.163 C1050.164,18.899 1048.544,20.022 1046.745,20.022 C1044.721,20.022 1042.899,18.560 1042.317,16.468 C1042.242,16.209 1041.996,16.064 1041.757,16.145 C1041.518,16.225 1041.384,16.492 1041.458,16.751 C1041.794,17.954 1042.496,19.037 1043.422,19.796 C1044.385,20.580 1045.535,21.000 1046.745,21.000 C1048.955,21.000 1050.933,19.578 1051.807,17.421 L1052.121,20.111 C1052.151,20.354 1052.345,20.531 1052.561,20.531 C1052.584,20.531 1052.599,20.531 1052.621,20.531 C1052.867,20.499 1053.039,20.257 1053.009,19.990 L1052.591,16.476 C1052.569,16.201 1052.352,16.015 1052.106,16.040 Z"/>
<path fill-rule="evenodd"  fill="rgb(59, 200, 231)"
 d="M848.651,15.429 L852.318,11.762 C852.655,11.424 852.655,10.877 852.318,10.539 C851.980,10.202 851.433,10.202 851.095,10.539 L847.428,14.206 L843.761,10.539 C843.424,10.202 842.877,10.202 842.539,10.539 C842.201,10.877 842.201,11.424 842.539,11.761 L846.206,15.428 L842.539,19.095 C842.201,19.433 842.201,19.980 842.539,20.318 C842.877,20.655 843.424,20.655 843.761,20.318 L847.428,16.651 L851.095,20.318 C851.433,20.655 851.980,20.655 852.318,20.318 C852.655,19.980 852.655,19.433 852.318,19.095 L848.651,15.429 Z"/>
<path fill-rule="evenodd"  fill="rgb(119, 119, 119)"
 d="M12.803,57.697 C11.986,56.880 11.014,56.275 9.953,55.909 C11.089,55.126 11.836,53.817 11.836,52.336 C11.836,49.945 9.891,48.000 7.500,48.000 C5.109,48.000 3.164,49.945 3.164,52.336 C3.164,53.817 3.911,55.126 5.047,55.909 C3.986,56.275 3.014,56.880 2.197,57.697 C0.780,59.113 -0.000,60.997 -0.000,63.000 L1.172,63.000 C1.172,59.511 4.011,56.672 7.500,56.672 C10.989,56.672 13.828,59.511 13.828,63.000 L15.000,63.000 C15.000,60.997 14.220,59.113 12.803,57.697 ZM7.500,55.500 C5.755,55.500 4.336,54.081 4.336,52.336 C4.336,50.591 5.755,49.172 7.500,49.172 C9.245,49.172 10.664,50.591 10.664,52.336 C10.664,54.081 9.245,55.500 7.500,55.500 Z"/>
<path fill-rule="evenodd"  fill="rgb(119, 119, 119)"
 d="M53.790,61.994 L40.195,61.994 C38.981,61.994 37.994,60.985 37.994,59.744 L37.994,50.243 C37.994,49.002 38.981,47.994 40.195,47.994 L53.794,47.994 C55.008,47.994 55.994,49.006 55.991,50.247 L55.991,59.744 C55.991,60.985 55.004,61.994 53.790,61.994 ZM54.985,59.744 L54.985,50.247 C54.985,49.573 54.449,49.025 53.790,49.025 L40.195,49.025 C39.536,49.025 39.000,49.573 39.000,50.247 L39.000,59.744 C39.000,60.418 39.536,60.966 40.195,60.966 L53.794,60.966 C54.453,60.966 54.989,60.418 54.989,59.744 L54.985,59.744 ZM53.783,59.893 C53.682,59.999 53.552,60.053 53.418,60.053 C53.295,60.053 53.168,60.007 53.071,59.912 L48.595,55.565 L47.341,56.714 C47.247,56.802 47.125,56.848 47.005,56.848 C46.886,56.848 46.767,56.806 46.670,56.718 L45.449,55.603 L40.947,59.908 C40.850,59.999 40.727,60.045 40.605,60.045 C40.470,60.045 40.336,59.988 40.236,59.881 C40.046,59.672 40.057,59.348 40.258,59.154 L44.693,54.910 L40.240,50.841 C40.031,50.651 40.012,50.327 40.199,50.114 C40.385,49.901 40.701,49.882 40.910,50.072 L45.728,54.480 C45.758,54.503 45.784,54.526 45.810,54.552 C45.810,54.556 45.814,54.560 45.818,54.564 L47.002,55.645 L53.071,50.076 C53.280,49.886 53.596,49.905 53.783,50.114 C53.969,50.327 53.950,50.651 53.745,50.841 L49.344,54.876 L53.764,59.166 C53.965,59.360 53.972,59.687 53.783,59.893 Z"/>
<path fill-rule="evenodd"  fill="rgb(119, 119, 119)"
 d="M88.734,63.000 L85.266,63.000 C82.914,63.000 81.000,61.075 81.000,58.708 L81.000,53.037 C81.000,52.717 81.258,52.457 81.577,52.457 L82.710,52.457 L82.710,50.096 C82.710,48.389 84.090,47.000 85.787,47.000 L88.212,47.000 C89.909,47.000 91.290,48.389 91.290,50.096 L91.290,52.457 L92.423,52.457 C92.742,52.457 93.000,52.717 93.000,53.037 L93.000,58.708 C93.000,61.075 91.086,63.000 88.734,63.000 ZM90.136,50.096 C90.136,49.029 89.273,48.161 88.212,48.161 L85.787,48.161 C84.727,48.161 83.864,49.029 83.864,50.096 L83.864,52.457 L90.136,52.457 L90.136,50.096 ZM91.846,53.618 L82.154,53.618 L82.154,58.708 C82.154,60.434 83.550,61.839 85.266,61.839 L88.734,61.839 C90.450,61.839 91.846,60.434 91.846,58.708 L91.846,53.618 ZM87.577,59.911 C87.577,60.232 87.319,60.492 87.000,60.492 C86.681,60.492 86.423,60.232 86.423,59.911 L86.423,58.254 C86.354,58.158 86.313,58.041 86.313,57.914 C86.313,57.594 86.572,57.334 86.890,57.334 L87.110,57.334 C87.428,57.334 87.687,57.594 87.687,57.914 C87.687,58.041 87.646,58.158 87.577,58.254 L87.577,59.911 Z"/>
<path fill-rule="evenodd"  fill="rgb(255, 255, 255)"
 d="M136.596,50.066 C133.391,53.271 130.185,56.480 126.980,59.692 C126.788,59.884 126.564,60.003 126.298,60.060 C125.157,60.297 124.011,60.542 122.869,60.783 L122.151,60.934 C122.081,60.946 122.012,60.954 121.943,60.954 C121.698,60.954 121.466,60.860 121.298,60.693 C121.082,60.476 120.997,60.158 121.062,59.839 L121.201,59.186 C121.449,58.006 121.698,56.827 121.955,55.647 C122.004,55.422 122.130,55.194 122.298,55.022 C123.007,54.299 123.725,53.585 124.439,52.871 L126.376,50.931 C128.219,49.086 130.067,47.237 131.902,45.391 C132.192,45.097 132.526,44.975 132.893,45.020 L132.962,45.028 C133.215,45.061 133.505,45.097 133.778,45.208 C135.140,45.759 136.135,46.739 136.735,48.110 C136.833,48.339 136.882,48.576 136.926,48.784 C136.947,48.866 136.963,48.951 136.984,49.033 C136.996,49.086 137.000,49.143 136.996,49.200 C136.963,49.547 136.833,49.829 136.596,50.066 ZM135.960,48.976 C135.923,48.800 135.887,48.633 135.829,48.502 C135.336,47.375 134.520,46.575 133.411,46.126 C133.256,46.061 133.060,46.036 132.848,46.012 L132.779,46.004 C132.771,46.004 132.767,46.004 132.759,46.004 C132.730,46.004 132.693,46.016 132.616,46.081 C130.772,47.935 128.925,49.784 127.077,51.634 L125.140,53.573 C124.427,54.283 123.717,54.998 123.007,55.716 C122.970,55.757 122.938,55.814 122.930,55.851 C122.677,57.027 122.428,58.206 122.179,59.382 L122.065,59.917 L122.669,59.790 C123.815,59.550 124.957,59.309 126.103,59.068 C126.176,59.052 126.225,59.027 126.278,58.974 C129.484,55.765 132.689,52.552 135.899,49.347 C135.956,49.294 135.984,49.245 136.001,49.172 C135.989,49.106 135.972,49.041 135.960,48.976 ZM125.707,49.462 L118.586,49.462 C118.264,49.462 117.999,49.727 117.999,50.049 L117.999,63.412 C117.999,63.734 118.264,64.000 118.586,64.000 L131.931,64.000 C132.253,64.000 132.518,63.734 132.518,63.412 L132.518,56.573 C132.518,56.296 132.742,56.071 133.019,56.071 C133.297,56.071 133.521,56.296 133.521,56.573 L133.521,63.412 C133.521,64.285 132.812,65.000 131.935,65.000 L118.586,65.000 C117.714,65.000 117.000,64.290 117.000,63.412 L117.000,50.045 C117.000,49.172 117.710,48.457 118.586,48.457 L125.707,48.457 C125.984,48.457 126.209,48.682 126.209,48.959 C126.209,49.237 125.984,49.462 125.707,49.462 Z"/>
<path fill-rule="evenodd"  fill="rgb(255, 255, 255)"
 d="M174.601,55.049 C174.572,55.053 174.547,55.057 174.518,55.057 C174.284,55.057 174.079,54.891 174.040,54.655 C173.756,52.982 172.965,51.457 171.751,50.244 C170.536,49.035 169.009,48.242 167.334,47.958 C167.068,47.912 166.892,47.664 166.935,47.399 C166.982,47.136 167.230,46.957 167.492,47.004 C169.368,47.323 171.075,48.206 172.434,49.562 C173.792,50.919 174.676,52.623 174.996,54.497 C175.042,54.759 174.863,55.010 174.601,55.049 ZM167.359,50.087 C168.499,50.280 169.537,50.819 170.360,51.640 C171.183,52.462 171.722,53.499 171.916,54.637 C171.959,54.902 171.783,55.154 171.517,55.197 C171.489,55.200 171.463,55.204 171.435,55.204 C171.201,55.204 170.996,55.039 170.957,54.802 C170.795,53.862 170.353,53.008 169.670,52.326 C168.987,51.644 168.132,51.199 167.191,51.041 C166.925,50.998 166.752,50.743 166.799,50.481 C166.846,50.219 167.094,50.043 167.359,50.087 ZM164.140,53.284 C163.874,53.553 163.601,53.833 163.306,54.102 C163.525,54.586 163.827,55.064 164.276,55.631 C165.203,56.768 166.170,57.647 167.234,58.322 C167.338,58.387 167.460,58.448 167.589,58.513 C167.679,58.559 167.773,58.606 167.866,58.656 L169.002,57.526 C169.365,57.163 169.789,56.973 170.231,56.973 C170.676,56.973 171.097,57.167 171.445,57.529 L173.418,59.506 C173.781,59.866 173.972,60.292 173.972,60.737 C173.972,61.179 173.785,61.610 173.429,61.979 C173.274,62.141 173.116,62.295 172.962,62.442 C172.735,62.661 172.520,62.865 172.333,63.092 C172.329,63.099 172.322,63.102 172.319,63.110 C171.772,63.702 171.075,64.000 170.245,64.000 C170.173,64.000 170.094,63.996 170.019,63.992 C168.786,63.913 167.683,63.450 166.856,63.059 C164.693,62.015 162.799,60.533 161.225,58.656 C159.928,57.098 159.058,55.645 158.476,54.077 C158.239,53.438 157.930,52.462 158.016,51.414 C158.074,50.765 158.336,50.205 158.796,49.745 L160.018,48.514 C160.021,48.511 160.021,48.511 160.025,48.507 C160.384,48.163 160.808,47.980 161.247,47.980 C161.685,47.980 162.102,48.163 162.451,48.507 C162.684,48.723 162.911,48.952 163.126,49.175 C163.234,49.290 163.349,49.405 163.460,49.515 L164.441,50.495 C165.196,51.249 165.196,52.225 164.441,52.979 C164.341,53.079 164.240,53.183 164.140,53.284 ZM163.759,51.181 L162.778,50.201 C162.663,50.083 162.548,49.968 162.436,49.853 C162.217,49.627 162.009,49.415 161.790,49.210 C161.786,49.207 161.782,49.204 161.779,49.200 C161.664,49.085 161.480,48.949 161.254,48.949 C161.071,48.949 160.884,49.038 160.708,49.204 L159.482,50.427 C159.184,50.725 159.022,51.073 158.987,51.493 C158.933,52.150 159.055,52.846 159.389,53.739 C159.932,55.204 160.751,56.568 161.976,58.043 C163.460,59.812 165.246,61.207 167.280,62.191 C168.024,62.546 169.016,62.962 170.083,63.031 C170.137,63.034 170.195,63.034 170.249,63.034 C170.809,63.034 171.237,62.851 171.600,62.464 C171.823,62.202 172.060,61.968 172.293,61.746 C172.448,61.595 172.592,61.459 172.732,61.308 C173.098,60.928 173.098,60.551 172.728,60.185 L170.748,58.208 C170.745,58.204 170.745,58.204 170.741,58.200 C170.630,58.078 170.446,57.938 170.224,57.938 C169.997,57.938 169.803,58.086 169.681,58.208 L168.452,59.435 C168.391,59.496 168.204,59.682 167.906,59.682 C167.787,59.682 167.672,59.653 167.550,59.593 C167.536,59.586 167.521,59.575 167.507,59.567 C167.403,59.503 167.280,59.442 167.151,59.377 C167.007,59.305 166.856,59.230 166.709,59.137 C165.556,58.409 164.510,57.458 163.518,56.237 L163.514,56.234 C162.968,55.541 162.609,54.960 162.354,54.342 C162.350,54.332 162.346,54.321 162.343,54.310 C162.278,54.106 162.221,53.804 162.530,53.496 C162.533,53.489 162.541,53.485 162.548,53.478 C162.860,53.198 163.148,52.911 163.450,52.602 C163.554,52.501 163.655,52.397 163.759,52.293 C164.140,51.913 164.140,51.561 163.759,51.181 Z"/>
<path fill-rule="evenodd"  fill="rgb(255, 255, 255)"
 d="M213.919,62.000 L201.079,62.000 C199.933,62.000 199.001,61.064 199.001,59.912 L199.001,51.089 C199.001,49.937 199.933,49.001 201.079,49.001 L213.922,49.001 C215.069,49.001 216.001,49.941 215.997,51.093 L215.997,59.912 C215.997,61.064 215.065,62.000 213.919,62.000 ZM215.048,59.912 L215.048,51.093 C215.048,50.467 214.541,49.958 213.919,49.958 L201.079,49.958 C200.457,49.958 199.950,50.467 199.950,51.093 L199.950,59.912 C199.950,60.537 200.457,61.046 201.079,61.046 L213.922,61.046 C214.545,61.046 215.051,60.537 215.051,59.912 L215.048,59.912 ZM213.912,60.049 C213.817,60.148 213.694,60.198 213.567,60.198 C213.451,60.198 213.331,60.155 213.240,60.067 L209.013,56.031 L207.828,57.098 C207.740,57.180 207.624,57.222 207.511,57.222 C207.399,57.222 207.286,57.183 207.195,57.102 L206.041,56.066 L201.790,60.064 C201.698,60.148 201.582,60.191 201.466,60.191 C201.339,60.191 201.213,60.138 201.118,60.039 C200.938,59.845 200.949,59.544 201.139,59.364 L205.327,55.423 L201.121,51.644 C200.924,51.468 200.907,51.167 201.083,50.969 C201.259,50.772 201.557,50.754 201.754,50.931 L206.305,55.023 C206.333,55.044 206.358,55.066 206.382,55.091 C206.382,55.094 206.386,55.097 206.389,55.101 L207.508,56.105 L213.240,50.934 C213.437,50.757 213.736,50.775 213.912,50.969 C214.088,51.167 214.070,51.468 213.877,51.644 L209.720,55.391 L213.894,59.374 C214.084,59.555 214.091,59.858 213.912,60.049 Z"/>
<path fill-rule="evenodd"  fill="rgb(255, 255, 255)"
 d="M252.154,55.506 L247.512,62.772 C247.423,62.912 247.262,62.998 247.087,63.000 C247.086,63.000 247.085,63.000 247.083,63.000 C246.910,63.000 246.750,62.916 246.658,62.778 L241.896,55.582 C241.310,54.695 241.000,53.672 241.000,52.625 C241.000,49.523 243.692,46.999 247.000,46.999 C250.308,46.999 253.000,49.523 253.000,52.625 C253.000,53.641 252.707,54.638 252.154,55.506 ZM247.000,47.931 C244.243,47.931 241.993,50.040 241.993,52.625 C241.993,53.498 242.258,54.350 242.745,55.088 L247.076,61.630 L251.295,55.025 C251.756,54.302 252.003,53.472 252.003,52.625 C252.003,50.040 249.757,47.931 247.000,47.931 ZM247.000,55.437 C245.324,55.437 244.000,54.165 244.000,52.625 C244.000,51.074 245.346,49.812 247.000,49.812 C248.654,49.812 250.000,51.074 250.000,52.625 C250.000,54.148 248.697,55.437 247.000,55.437 ZM247.000,50.743 C245.897,50.743 244.993,51.591 244.993,52.625 C244.993,53.661 245.891,54.506 247.000,54.506 C248.126,54.506 249.003,53.646 249.003,52.625 C249.003,51.591 248.103,50.743 247.000,50.743 Z"/>
<path fill-rule="evenodd"  fill="rgb(46, 200, 230)"
 d="M293.242,62.999 L281.758,62.999 C280.788,62.999 280.000,62.210 280.000,61.241 L280.000,57.168 L281.171,57.168 L281.171,61.241 C281.171,61.564 281.434,61.827 281.758,61.827 L293.242,61.827 C293.565,61.827 293.828,61.564 293.828,61.241 L293.828,57.168 L295.000,57.168 L295.000,61.241 C295.000,62.210 294.211,62.999 293.242,62.999 ZM283.859,55.734 L284.687,54.904 L286.914,57.131 L286.914,47.999 L288.086,47.999 L288.086,57.131 L290.312,54.904 L291.141,55.734 L287.500,59.374 L283.859,55.734 Z"/>
</svg>