<svg 
 xmlns="http://www.w3.org/2000/svg"
 xmlns:xlink="http://www.w3.org/1999/xlink"
 width="14px" height="14px">
<path fill-rule="evenodd"  fill="rgb(255, 255, 255)"
 d="M13.608,13.607 C13.097,14.119 12.267,14.119 11.755,13.607 L8.547,10.400 C9.290,9.922 9.922,9.290 10.400,8.546 L13.608,11.754 C14.120,12.266 14.120,13.096 13.608,13.607 ZM5.254,10.496 C2.358,10.496 0.011,8.149 0.011,5.253 C0.011,2.358 2.358,0.010 5.254,0.010 C8.149,0.010 10.497,2.358 10.497,5.253 C10.497,8.149 8.149,10.496 5.254,10.496 ZM5.254,1.321 C3.085,1.321 1.322,3.085 1.322,5.253 C1.322,7.422 3.085,9.186 5.254,9.186 C7.422,9.186 9.186,7.422 9.186,5.253 C9.186,3.085 7.422,1.321 5.254,1.321 ZM3.069,5.253 L2.195,5.253 C2.195,3.567 3.568,2.195 5.254,2.195 L5.254,3.069 C4.049,3.069 3.069,4.049 3.069,5.253 Z"/>
</svg>