<svg 
 xmlns="http://www.w3.org/2000/svg"
 xmlns:xlink="http://www.w3.org/1999/xlink"
 width="14px" height="15px">
<path fill-rule="evenodd"  fill="rgb(255, 255, 255)"
 d="M11.342,9.637 C10.488,9.637 9.726,10.048 9.239,10.683 L5.159,8.381 C5.255,8.104 5.307,7.805 5.307,7.497 C5.307,7.185 5.255,6.890 5.156,6.609 L9.233,4.311 C9.717,4.949 10.481,5.363 11.339,5.363 C12.800,5.363 13.994,4.161 13.994,2.682 C13.994,1.202 12.803,-0.000 11.339,-0.000 C9.874,-0.000 8.684,1.202 8.684,2.682 C8.684,2.993 8.736,3.292 8.835,3.569 L4.761,5.868 C4.277,5.226 3.512,4.815 2.655,4.815 C1.193,4.815 -0.000,6.017 -0.000,7.497 C-0.000,8.976 1.193,10.179 2.658,10.179 C3.515,10.179 4.280,9.764 4.767,9.123 L8.844,11.424 C8.745,11.705 8.690,12.007 8.690,12.318 C8.690,13.795 9.880,15.000 11.345,15.000 C12.810,15.000 14.000,13.798 14.000,12.318 C14.000,10.839 12.807,9.637 11.342,9.637 ZM11.342,0.844 C12.347,0.844 13.164,1.669 13.164,2.685 C13.164,3.700 12.347,4.526 11.342,4.526 C10.337,4.526 9.519,3.700 9.519,2.685 C9.519,1.669 10.340,0.844 11.342,0.844 ZM2.658,9.338 C1.653,9.338 0.836,8.512 0.836,7.497 C0.836,6.481 1.653,5.656 2.658,5.656 C3.663,5.656 4.481,6.481 4.481,7.497 C4.481,8.512 3.660,9.338 2.658,9.338 ZM11.342,14.156 C10.337,14.156 9.519,13.331 9.519,12.315 C9.519,11.300 10.337,10.474 11.342,10.474 C12.347,10.474 13.164,11.300 13.164,12.315 C13.164,13.331 12.347,14.156 11.342,14.156 Z"/>
</svg>