<svg 
 xmlns="http://www.w3.org/2000/svg"
 xmlns:xlink="http://www.w3.org/1999/xlink"
 width="25px" height="25px">
<path fill-rule="evenodd"  fill="rgb(255, 255, 255)"
 d="M24.034,15.068 C23.500,15.068 23.068,14.628 23.068,14.086 L23.068,10.913 C23.068,10.371 23.500,9.931 24.034,9.931 C24.568,9.931 25.000,10.371 25.000,10.913 L25.000,14.086 C25.000,14.628 24.568,15.068 24.034,15.068 ZM19.420,18.212 C18.887,18.212 18.454,17.772 18.454,17.230 L18.454,7.768 C18.454,7.226 18.887,6.787 19.420,6.787 C19.954,6.787 20.386,7.226 20.386,7.768 L20.386,17.230 C20.386,17.772 19.954,18.212 19.420,18.212 ZM14.807,19.275 C14.273,19.275 13.841,18.836 13.841,18.293 L13.841,6.706 C13.841,6.163 14.273,5.724 14.807,5.724 C15.340,5.724 15.773,6.163 15.773,6.706 L15.773,18.293 C15.773,18.836 15.340,19.275 14.807,19.275 ZM10.193,24.999 C9.660,24.999 9.227,24.560 9.227,24.017 L9.227,0.981 C9.227,0.439 9.660,-0.001 10.193,-0.001 C10.727,-0.001 11.159,0.439 11.159,0.981 L11.159,24.017 C11.159,24.560 10.727,24.999 10.193,24.999 ZM5.580,21.050 C5.046,21.050 4.614,20.610 4.614,20.068 L4.614,4.931 C4.614,4.389 5.046,3.949 5.580,3.949 C6.113,3.949 6.546,4.389 6.546,4.931 L6.546,20.068 C6.546,20.610 6.113,21.050 5.580,21.050 ZM0.966,18.212 C0.432,18.212 -0.000,17.772 -0.000,17.230 L-0.000,7.768 C-0.000,7.226 0.432,6.787 0.966,6.787 C1.500,6.787 1.932,7.226 1.932,7.768 L1.932,17.230 C1.932,17.772 1.500,18.212 0.966,18.212 Z"/>
</svg>