<svg 
 xmlns="http://www.w3.org/2000/svg"
 xmlns:xlink="http://www.w3.org/1999/xlink"
 width="136px" height="101px">
<path fill-rule="evenodd"  fill="rgb(255, 255, 255)"
 d="M106.077,100.500 L84.201,100.500 L78.309,100.500 L77.037,100.500 L77.037,70.705 L86.634,70.705 C89.068,70.705 90.506,67.897 89.068,65.875 L70.400,39.646 C69.210,37.961 66.749,37.961 65.560,39.646 L46.891,65.875 C45.453,67.897 46.863,70.705 49.325,70.705 L58.922,70.705 L58.922,100.500 L57.650,100.500 L51.759,100.500 L26.397,100.500 C11.877,99.686 0.317,85.897 0.317,70.958 C0.317,60.652 5.821,51.665 13.979,46.807 C13.233,44.757 12.845,42.567 12.845,40.264 C12.845,29.733 21.225,21.224 31.597,21.224 C33.837,21.224 35.994,21.618 38.013,22.376 C44.015,9.458 56.958,0.500 72.004,0.500 C91.474,0.528 107.515,15.664 109.341,34.957 C124.303,37.568 135.670,51.637 135.670,67.560 C135.670,84.577 122.616,99.321 106.077,100.500 Z"/>
</svg>