<svg 
 xmlns="http://www.w3.org/2000/svg"
 xmlns:xlink="http://www.w3.org/1999/xlink"
 width="20px" height="16px">
<path fill-rule="evenodd"  fill="rgb(255, 255, 255)"
 d="M17.406,14.872 C17.319,14.960 17.206,15.004 17.092,15.004 C16.978,15.004 16.864,14.960 16.777,14.872 C16.603,14.695 16.603,14.408 16.777,14.231 C18.281,12.702 19.109,10.665 19.109,8.496 C19.109,6.326 18.281,4.289 16.777,2.760 C16.603,2.583 16.603,2.297 16.777,2.120 C16.951,1.943 17.233,1.943 17.406,2.120 C19.079,3.820 20.000,6.085 20.000,8.496 C20.000,10.907 19.079,13.171 17.406,14.872 ZM14.646,12.518 C14.532,12.518 14.419,12.474 14.332,12.386 C14.158,12.209 14.158,11.922 14.332,11.745 C15.184,10.879 15.653,9.725 15.653,8.496 C15.653,7.267 15.184,6.113 14.332,5.246 C14.158,5.069 14.158,4.783 14.332,4.606 C14.506,4.429 14.787,4.429 14.961,4.606 C15.982,5.643 16.544,7.025 16.544,8.496 C16.544,9.967 15.982,11.348 14.961,12.386 C14.874,12.474 14.760,12.518 14.646,12.518 ZM11.698,15.850 C11.513,15.950 11.311,16.000 11.110,16.000 C10.868,16.000 10.627,15.928 10.418,15.787 L5.059,12.154 L3.027,12.154 C2.506,12.154 2.078,11.745 2.035,11.226 L1.748,11.226 C0.784,11.226 -0.000,10.429 -0.000,9.448 L-0.000,7.543 C-0.000,6.563 0.784,5.765 1.748,5.765 L2.035,5.765 C2.078,5.246 2.506,4.837 3.027,4.837 L5.059,4.837 L10.418,1.205 C10.802,0.945 11.292,0.921 11.698,1.142 C12.104,1.363 12.357,1.791 12.357,2.260 L12.357,14.732 C12.357,15.200 12.104,15.628 11.698,15.850 ZM2.031,6.771 L1.748,6.771 C1.330,6.771 0.989,7.117 0.989,7.543 L0.989,9.448 C0.989,9.874 1.330,10.220 1.748,10.220 L2.031,10.220 L2.031,6.771 ZM4.714,5.843 L3.027,5.843 C3.023,5.843 3.020,5.847 3.020,5.850 L3.020,11.141 C3.020,11.145 3.024,11.148 3.027,11.148 L4.714,11.148 L4.714,5.843 ZM11.367,2.260 C11.367,2.118 11.272,2.051 11.231,2.029 C11.190,2.007 11.083,1.963 10.967,2.042 L5.703,5.610 L5.703,11.382 L10.967,14.950 C11.083,15.028 11.190,14.985 11.231,14.963 C11.272,14.940 11.367,14.873 11.367,14.732 L11.367,2.260 Z"/>
</svg>